<?xml version="1.0" encoding="UTF-8"?>
<!-- Generator: visioncortex VTracer 0.6.4 -->
<svg version="1.1" xmlns="http://www.w3.org/2000/svg" width="779" height="841">
<path d="M0 0 C257.07 0 514.14 0 779 0 C779 277.53 779 555.06 779 841 C521.93 841 264.86 841 0 841 C0 563.47 0 285.94 0 0 Z " fill="#FDFDFC" transform="translate(0,0)"/>
<path d="M0 0 C0.99 0 1.98 0 3 0 C3.17015625 0.70125 3.3403125 1.4025 3.515625 2.125 C4.88276911 7.47722375 6.41860188 12.30284896 9.03125 17.171875 C10.54497042 20.02841192 11.72704045 23.02976105 13 26 C22.03515393 45.15536099 34.55172963 62.58354656 49 78 C50.34399411 79.5005952 51.68796739 81.00120926 53.03125 82.50244141 C66.02607965 96.91858055 81.37684383 109.35569961 98 119.375 C98.7520874 119.84534668 99.5041748 120.31569336 100.27905273 120.80029297 C106.51643976 124.41094264 112.17109028 125.26749505 119.20068359 123.42236328 C121.40317783 122.6520727 123.5387665 121.78415218 125.6875 120.875 C148.36852751 111.95027093 172.93876417 107.05705171 197.328125 106.7265625 C198.18728516 106.71403442 199.04644531 106.70150635 199.93164062 106.68859863 C228.27587729 106.35584199 254.02358442 109.57069488 281.39648438 117.27246094 C285.56439622 118.43716249 289.75074013 119.53036111 293.9375 120.625 C295.49090897 121.03115993 297.04429498 121.4374077 298.59765625 121.84375 C299.33773926 122.03710938 300.07782227 122.23046875 300.84033203 122.4296875 C302.89569861 122.9724567 304.94600277 123.53143933 306.99609375 124.09375 C323.81923698 128.63494061 340.36543162 130.28349862 357.75 130.375 C358.4787735 130.38285522 359.207547 130.39071045 359.95840454 130.39880371 C373.79364899 130.5148846 387.23734886 128.89624176 400.4375 124.5625 C401.08944336 124.35149658 401.74138672 124.14049316 402.41308594 123.9230957 C407.03189097 122.40272953 411.53823181 120.66578209 415.984375 118.69921875 C418 118 418 118 422 118 C422 117.34 422 116.68 422 116 C422.66644531 115.67128906 423.33289063 115.34257813 424.01953125 115.00390625 C431.48370673 111.15176534 437.73351419 106.57642636 444 101 C444.78375 100.31164062 445.5675 99.62328125 446.375 98.9140625 C452.93587096 92.78602678 457.46932466 85.69034471 462 78 C462.61524536 77.01012085 462.61524536 77.01012085 463.24291992 76.00024414 C466.95176079 69.78453421 468.91341041 63.39244398 470.8125 56.4375 C471.12380859 55.33341797 471.43511719 54.22933594 471.75585938 53.09179688 C472.51408122 50.39719309 473.2618483 47.700157 474 45 C474.66 45.33 475.32 45.66 476 46 C478.22745953 56.10446305 478.36878127 66.57460151 478.3125 76.875 C478.30976578 77.92266037 478.30976578 77.92266037 478.30697632 78.9914856 C478.26038632 89.62174408 477.67377575 99.66357424 475 110 C474.8443457 110.6688623 474.68869141 111.33772461 474.52832031 112.02685547 C469.77221888 132.38505809 458.8240259 154.63745733 440.734375 166.0625 C434.08405773 170.04119756 427.31840195 173.42221237 420 176 C419.31164062 176.27457031 418.62328125 176.54914063 417.9140625 176.83203125 C386.06087507 188.85098487 347.85959987 180.02908243 317.19311523 169.12719727 C314.46743631 168.16500906 311.73497039 167.23971526 308.98828125 166.33984375 C305.57686197 165.21480962 302.26157597 163.92702648 298.9375 162.5625 C291.46023882 159.63892632 283.80757344 157.79403806 276 156 C276 155.34 276 154.68 276 154 C274.081875 153.8453125 274.081875 153.8453125 272.125 153.6875 C268.17114467 153.31614342 264.36827602 152.66398211 260.48242188 151.85571289 C250.87762797 149.94966424 241.3809032 149.72214838 231.625 149.75 C230.60028595 149.75143509 230.60028595 149.75143509 229.55487061 149.75289917 C216.41143806 149.79569431 204.35771212 150.52467861 191.6875 154.125 C190.57463623 154.4334082 189.46177246 154.74181641 188.31518555 155.05957031 C180.62438201 157.20948835 172.95957356 159.44959505 165.3125 161.75 C164.37559326 162.03117676 163.43868652 162.31235352 162.47338867 162.60205078 C157.48874015 164.13109524 152.75568603 165.86467331 148 168 C138.24874648 172.0287641 127.99504992 174.63265638 117.79443359 177.25610352 C115.97324304 177.74091634 114.16211121 178.26581032 112.36572266 178.83569336 C103.32371849 181.52366222 94.38212947 181.48977288 85.02929688 181.44604492 C82.2687658 181.4375577 79.51032681 181.4663444 76.75 181.49804688 C65.4810391 181.54134655 55.80907175 180.17227045 45 177 C42.98274024 176.56636245 40.96241024 176.14637984 38.9375 175.75 C19.86490662 170.92346616 6.14812791 157.16333759 -4 140.875 C-22.83754256 107.88489956 -22.22070571 67.56107746 -12.97558594 31.80053711 C-11.19032099 25.2737407 -8.8883257 19.12291266 -6 13 C-5.45601562 11.80761719 -4.91203125 10.61523438 -4.3515625 9.38671875 C-2.91643422 6.25032338 -1.46546863 3.1223043 0 0 Z " fill="#FDCA02" transform="translate(155,416)"/>
<path d="M0 0 C9.87957726 8.19282017 16.07115091 18.62806453 20.375 30.5625 C20.61371826 31.22185547 20.85243652 31.88121094 21.09838867 32.56054688 C24.60903966 42.99219552 25.39019537 53.6210749 25.375 64.5625 C25.37338867 65.78396729 25.37177734 67.00543457 25.37011719 68.26391602 C25.23131042 78.61114374 23.7739258 88.06340151 21 98 C20.71125 99.14984375 20.4225 100.2996875 20.125 101.484375 C15.21799254 119.44752732 3.39854819 143.1703273 -13.1484375 152.83984375 C-16 154 -16 154 -19 154 C-19 154.66 -19 155.32 -19 156 C-20.14597656 156.39832031 -21.29195313 156.79664063 -22.47265625 157.20703125 C-24.00264898 157.74205938 -25.53259438 158.27722285 -27.0625 158.8125 C-27.81466797 159.07353516 -28.56683594 159.33457031 -29.34179688 159.60351562 C-32.78895777 160.81226035 -36.14511807 162.06379351 -39.4921875 163.53515625 C-54.77539071 169.91734022 -72.79353167 173.51689956 -89 169 C-104.15020325 162.47240151 -113.76556657 149.40137166 -119.8125 134.5 C-123.86760323 123.84254458 -125.58440599 113.11109376 -125.5625 101.75 C-125.56213745 99.95429565 -125.56213745 99.95429565 -125.56176758 98.12231445 C-124.95577287 65.7919652 -109.36725155 33.46228357 -86.30078125 11.04296875 C-83.43177809 8.49544981 -80.46651562 6.10383716 -77.4375 3.75 C-76.90737305 3.33741943 -76.37724609 2.92483887 -75.83105469 2.49975586 C-65.94909507 -5 -65.94909507 -5 -60 -5 C-60 -5.66 -60 -6.32 -60 -7 C-57.95990245 -7.65077296 -55.91784331 -8.29539824 -53.875 -8.9375 C-52.73804688 -9.29714844 -51.60109375 -9.65679687 -50.4296875 -10.02734375 C-31.88668455 -15.28612249 -15.30978599 -11.54661722 0 0 Z " fill="#FDCB02" transform="translate(528,90)"/>
<path d="M0 0 C23.87590549 14.30914465 40.41499775 35.89047214 50.4921875 61.57421875 C50.78609375 62.28707031 51.08 62.99992187 51.3828125 63.734375 C57.21340721 78.34187557 58.64788135 92.07590552 58.5546875 107.57421875 C58.54966326 109.03124846 58.54510199 110.48827985 58.54101562 111.9453125 C58.53008138 115.48831645 58.5128675 119.03125672 58.4921875 122.57421875 C57.8321875 122.57421875 57.1721875 122.57421875 56.4921875 122.57421875 C56.46640625 123.156875 56.440625 123.73953125 56.4140625 124.33984375 C55.26612522 140.93275532 47.31020597 153.48990151 35.3671875 164.63671875 C22.29164729 175.39098328 8.83882433 178.22474817 -7.5078125 177.57421875 C-8.44109375 177.55488281 -9.374375 177.53554688 -10.3359375 177.515625 C-17.35491543 177.14203424 -23.20571399 174.5393915 -29.5078125 171.57421875 C-30.260625 171.27644531 -31.0134375 170.97867188 -31.7890625 170.671875 C-33.6953125 169.82421875 -33.6953125 169.82421875 -36.5078125 167.57421875 C-37.03560363 165.33886806 -37.13663878 163.23444831 -37.234375 160.94140625 C-37.95197489 154.7290415 -42.25352515 150.52272571 -46.8828125 146.69921875 C-51.34348143 143.46578493 -55.32744067 141.58946015 -60.953125 141.5625 C-67.64178042 141.43272012 -67.64178042 141.43272012 -70.3046875 138.79296875 C-71.86110674 136.4503171 -73.19031552 134.05795928 -74.5078125 131.57421875 C-75.33664545 130.38357328 -76.1698556 129.19596067 -77.0078125 128.01171875 C-84.60457817 115.59392871 -87.51620729 100.62328648 -90.5078125 86.57421875 C-90.68957031 85.78370117 -90.87132812 84.99318359 -91.05859375 84.17871094 C-91.97734021 78.85197874 -91.69250915 73.40255279 -91.6953125 68.01171875 C-91.70755859 66.79935547 -91.71980469 65.58699219 -91.73242188 64.33789062 C-91.76692372 42.88924328 -85.30154769 22.42490839 -70.5 6.4296875 C-59.91833882 -3.42578125 -59.91833882 -3.42578125 -53.5078125 -3.42578125 C-53.5078125 -4.08578125 -53.5078125 -4.74578125 -53.5078125 -5.42578125 C-35.92923422 -12.32541292 -16.20678744 -9.0779195 0 0 Z " fill="#FDCA02" transform="translate(307.5078125,86.42578125)"/>
<path d="M0 0 C0.78834229 0.00346436 1.57668457 0.00692871 2.38891602 0.01049805 C9.34956833 0.13844342 15.68297437 1.41196472 22.375 3.3125 C23.25929688 3.49425781 24.14359375 3.67601562 25.0546875 3.86328125 C52.7593018 9.90568229 77.25740683 34.91018218 92.125 57.875 C93.70265088 60.37583669 94.36254895 61.76376439 94.4296875 64.72265625 C92.84108485 68.6235583 89.9955352 70.60839914 86.75 73.1875 C71.15565409 85.85582791 59.36910841 101.3712008 50.375 119.3125 C49.53001953 120.983125 49.53001953 120.983125 48.66796875 122.6875 C41.25869237 138.59399714 38.70361999 155.96111956 37.375 173.3125 C33.06661342 173.62251306 30.17453763 172.61104233 26.25 170.875 C23.29800777 169.5830433 20.43255203 168.33168401 17.375 167.3125 C17.375 166.6525 17.375 165.9925 17.375 165.3125 C16.67632812 165.2196875 15.97765625 165.126875 15.2578125 165.03125 C-5.55031895 159.84331479 -23.76184134 136.78329003 -34.38085938 119.29736328 C-36.1550686 116.31713166 -37.89237819 113.31712841 -39.625 110.3125 C-40.140625 109.52875 -40.65625 108.745 -41.1875 107.9375 C-43.21961785 104.2266761 -44.4107625 100.33536599 -45.6875 96.3125 C-46.19785551 94.72872673 -46.70953909 93.1453807 -47.22265625 91.5625 C-47.46274414 90.82056396 -47.70283203 90.07862793 -47.95019531 89.31420898 C-48.49353874 87.70246053 -49.10544603 86.11391359 -49.73828125 84.53515625 C-56.31182447 68.05786069 -53.49637772 47.09061239 -47.33984375 30.94140625 C-41.448509 18.05923974 -31.43607814 8.18758455 -18.21484375 3.171875 C-17.36019531 2.88828125 -16.50554687 2.6046875 -15.625 2.3125 C-14.54605469 1.95285156 -13.46710938 1.59320313 -12.35546875 1.22265625 C-8.12944223 0.19159428 -4.32880361 -0.03119607 0 0 Z " fill="#FDCA02" transform="translate(111.625,176.6875)"/>
<path d="M0 0 C4.12672742 3.55406281 7.4877599 7.17711331 10.24682617 11.86572266 C10.6825293 12.57728516 11.11823242 13.28884766 11.56713867 14.02197266 C20.33346746 29.76986868 21.39608741 49.36585054 18.24682617 66.86572266 C17.63300359 68.88256828 16.96090951 70.88215783 16.24682617 72.86572266 C15.77902798 74.80095922 15.32183724 76.7387728 14.87182617 78.67822266 C13.52078428 84.10901175 11.77276069 88.88295213 9.24682617 93.86572266 C8.66803711 95.02201172 8.08924805 96.17830078 7.49291992 97.36962891 C3.38904039 105.40480931 -1.13425163 112.77517798 -6.75317383 119.86572266 C-7.56012695 120.88794922 -8.36708008 121.91017578 -9.19848633 122.96337891 C-20.96726987 137.60375467 -20.96726987 137.60375467 -27.75317383 139.86572266 C-28.03290039 139.10130859 -28.31262695 138.33689453 -28.60083008 137.54931641 C-41.20248253 103.8773769 -60.06263573 71.32123728 -87.75317383 47.86572266 C-88.32422852 47.36041016 -88.8952832 46.85509766 -89.48364258 46.33447266 C-97.23076627 40.0602589 -108.04276001 38.30411606 -117.75317383 37.86572266 C-115.63371679 31.58743525 -111.24540749 27.82478165 -106.62817383 23.24072266 C-105.7303418 22.34788574 -104.83250977 21.45504883 -103.9074707 20.53515625 C-93.16410396 10.06779734 -81.54086142 1.86677226 -67.75317383 -4.13427734 C-66.69485352 -4.59576172 -65.6365332 -5.05724609 -64.54614258 -5.53271484 C-43.46389872 -14.18568801 -18.34817761 -14.89534167 0 0 Z " fill="#FDC902" transform="translate(690.753173828125,188.13427734375)"/>
<path d="M0 0 C3.20323373 3.09616185 3.2483755 3.71887707 3.4609375 7.97265625 C3.44215707 10.11513416 3.38815594 12.25750375 3.3046875 14.3984375 C3.27181641 16.06700806 3.27181641 16.06700806 3.23828125 17.76928711 C2.99804569 26.82577605 2.18355248 35.7606264 0.8046875 44.7109375 C2.58359375 44.76701172 2.58359375 44.76701172 4.3984375 44.82421875 C13.93480957 45.18879229 23.02923687 46.08491891 32.37109375 48.02734375 C35.07336992 48.56533957 37.62898433 48.93937543 40.3671875 49.1484375 C45.71435268 49.64750625 50.80804112 51.24139582 55.96875 52.66015625 C61.5525661 54.1897352 67.12090091 55.60343497 72.8046875 56.7109375 C73.8978125 56.92621094 74.9909375 57.14148438 76.1171875 57.36328125 C85.30330169 58.67403575 89.57476887 56.08871832 96.8046875 50.7109375 C99.39960067 48.97497739 102.03420917 47.30608297 104.6796875 45.6484375 C105.7001416 45.00684692 105.7001416 45.00684692 106.74121094 44.35229492 C117.05188492 37.96885409 129.26174367 30.79876457 141.8046875 32.7109375 C147.26810213 35.63776677 147.26810213 35.63776677 148.8046875 38.7109375 C149.83476785 51.19010761 147.61205503 63.02679042 145.26220703 75.23486328 C144.68025297 78.38437132 144.22303137 81.53592771 143.8046875 84.7109375 C144.01037354 84.0718042 144.21605957 83.4326709 144.42797852 82.77416992 C154.26733882 52.51956912 154.26733882 52.51956912 166.8046875 42.7109375 C170.43383718 40.89043268 173.38810015 40.4386698 177.4296875 40.4609375 C178.84121094 40.45320313 178.84121094 40.45320313 180.28125 40.4453125 C182.8046875 40.7109375 182.8046875 40.7109375 185.8046875 42.7109375 C185.9921875 45.8359375 185.9921875 45.8359375 185.8046875 48.7109375 C184.93585938 48.84628906 184.06703125 48.98164063 183.171875 49.12109375 C174.39293653 50.64526813 174.39293653 50.64526813 168.12109375 56.42578125 C167.46947266 57.55693359 167.46947266 57.55693359 166.8046875 58.7109375 C166.25683594 59.59910156 165.70898438 60.48726563 165.14453125 61.40234375 C159.27064497 71.92370049 156.51673839 83.44345089 153.50976562 95.04150391 C152.93437369 97.21994415 152.30496849 99.38405816 151.66015625 101.54296875 C150.7632973 104.86421355 150.30856494 108.04330832 149.9296875 111.4609375 C149.33098166 116.4155143 148.50456192 121.15467901 147.32086182 125.99864197 C144.6880251 137.04048995 144.05980836 147.80155262 144.06347656 159.1262207 C144.05469934 162.14436641 143.98165976 165.15670304 143.90625 168.17382812 C143.64885499 190.67063331 152.40189849 210.0823198 167.62890625 226.58984375 C171.09280484 229.96667846 174.92269678 232.83538882 178.8046875 235.7109375 C177.9296875 240.5859375 177.9296875 240.5859375 176.8046875 241.7109375 C172.5626814 242.31693837 170.12422922 242.515168 166.4140625 240.25390625 C164.14593889 238.47019977 161.97283562 236.61418031 159.8046875 234.7109375 C158.48017462 233.6992837 157.14956199 232.69536139 155.8046875 231.7109375 C164.90129706 246.13662351 174.14226911 258.28593089 191.2109375 263.01171875 C202.44873216 265.19820271 212.7210566 264.57890035 222.8046875 258.7109375 C223.66320312 258.00195312 224.52171875 257.29296875 225.40625 256.5625 C228.65266645 254.0563088 230.80698874 254.25836783 234.8046875 254.7109375 C236.8046875 256.7109375 236.8046875 256.7109375 237.1484375 259.11328125 C236.60492591 263.22049953 234.18355874 264.55916052 231.09375 267.0703125 C227.8388567 269.40317118 224.51842837 271.22120494 220.8046875 272.7109375 C219.97453125 273.06929687 219.144375 273.42765625 218.2890625 273.796875 C213.24868824 275.11912565 208.36986647 275.05139752 203.1796875 275.0234375 C202.10315918 275.01779785 201.02663086 275.0121582 199.91748047 275.00634766 C183.922063 274.7615322 172.94831314 270.21487658 161.25 259.25 C142.0076784 239.26995361 135.76610051 213.484268 132.3046875 186.84375 C131.82267005 183.82360941 131.11024436 181.01562941 130.2421875 178.0859375 C126.46456637 164.93273058 127.48336589 150.40956344 127.4296875 136.8359375 C127.42512543 135.72676971 127.42056335 134.61760193 127.41586304 133.474823 C127.38461048 112.23094298 129.42041945 92.60049995 135.15551758 72.0847168 C137.60935643 63.11191682 138.42350236 53.99316045 137.8046875 44.7109375 C137.4746875 44.3809375 137.1446875 44.0509375 136.8046875 43.7109375 C131.09956383 44.08064691 126.96380727 45.79498061 121.9921875 48.5234375 C121.26660645 48.9143457 120.54102539 49.30525391 119.79345703 49.70800781 C110.43544956 54.86262181 101.42623359 60.79801774 92.84619141 67.1640625 C88.48343714 70.39964744 86.28806028 71.46726478 80.8046875 70.7109375 C79.52837957 70.28521368 78.26066816 69.83330093 77 69.36328125 C70.50384795 67.14949401 63.78804337 66.02305313 57.0546875 64.7734375 C55.67364273 64.51267593 54.29270276 64.25135875 52.91186523 63.98950195 C50.16233621 63.46885353 47.41223311 62.95141827 44.66162109 62.43652344 C41.2343581 61.79176932 37.80991633 61.13469069 34.38671875 60.46875 C32.96987793 60.19405884 32.96987793 60.19405884 31.52441406 59.91381836 C29.816487 59.58255834 28.10878475 59.25013597 26.40136719 58.91625977 C16.92970876 57.09855768 7.68150946 56.46149776 -1.9453125 56.19335938 C-3.30269531 56.14211914 -3.30269531 56.14211914 -4.6875 56.08984375 C-5.91509033 56.05225952 -5.91509033 56.05225952 -7.16748047 56.01391602 C-9.1953125 55.7109375 -9.1953125 55.7109375 -11.1953125 53.7109375 C-11.22680664 51.67749023 -11.22680664 51.67749023 -10.91796875 49.20703125 C-10.75385498 47.8610083 -10.75385498 47.8610083 -10.58642578 46.48779297 C-9.98818651 42.2403688 -9.32141207 38.00700381 -8.6328125 33.7734375 C-6.50658215 21.67175543 -6.50658215 21.67175543 -8.1953125 9.7109375 C-16.63325029 12.26327083 -23.01318419 16.94102527 -29.70263672 22.4765625 C-31.00076685 23.5500571 -32.31723776 24.60129739 -33.63671875 25.6484375 C-53.87954858 42.45107264 -68.56003766 69.86096801 -72.1953125 95.7109375 C-72.44198941 100.978237 -72.44105172 106.25090742 -72.4453125 111.5234375 C-72.44598724 112.2686969 -72.44666199 113.0139563 -72.44735718 113.78179932 C-72.43154994 124.74906604 -71.91016452 135.03762816 -69.1953125 145.7109375 C-68.85014042 147.21972745 -68.50646425 148.72886019 -68.1640625 150.23828125 C-60.25016973 183.78270825 -41.72611255 211.8078121 -18.6328125 236.9609375 C-18.11468994 237.52772217 -17.59656738 238.09450684 -17.06274414 238.6784668 C-10.40215116 245.82725986 -2.8082424 251.9113052 4.7421875 258.0859375 C6.25166935 259.32246847 7.7608034 260.55942417 9.26953125 261.796875 C9.9255835 262.3336084 10.58163574 262.8703418 11.25756836 263.42333984 C12.8046875 264.7109375 12.8046875 264.7109375 13.8046875 265.7109375 C13.9296875 268.7109375 13.9296875 268.7109375 13.8046875 271.7109375 C12.8046875 272.7109375 12.8046875 272.7109375 9.62109375 273.0078125 C5.15478025 272.66038177 3.33732176 271.57726747 -0.2578125 268.9609375 C-0.81090088 268.5589917 -1.36398926 268.1570459 -1.93383789 267.74291992 C-17.73562382 256.05195117 -32.20554908 242.29085607 -44.1953125 226.7109375 C-44.93136719 225.78023437 -45.66742188 224.84953125 -46.42578125 223.890625 C-50.70620282 218.36512383 -54.57987419 212.68540578 -58.1953125 206.7109375 C-58.58138672 206.07575195 -58.96746094 205.44056641 -59.36523438 204.78613281 C-61.11787256 201.82439613 -62.64705565 199.13754281 -63.1953125 195.7109375 C-63.8553125 195.7109375 -64.5153125 195.7109375 -65.1953125 195.7109375 C-66.39220039 192.83840656 -67.58779268 189.9654252 -68.77734375 187.08984375 C-69.62630813 185.06682945 -70.4928769 183.05086795 -71.39453125 181.05078125 C-85.1780824 149.95765423 -91.6981992 110.76920385 -81.1953125 77.7109375 C-80.82723466 76.41989388 -80.46135492 75.1282216 -80.09765625 73.8359375 C-72.69880791 49.35703588 -56.47426958 28.02361938 -36.1953125 12.7109375 C-35.37289062 12.08445312 -34.55046875 11.45796875 -33.703125 10.8125 C-24.38084516 3.99204606 -11.88873911 -4.79619059 0 0 Z " fill="#75A90A" transform="translate(250.1953125,245.2890625)"/>
<path d="M0 0 C2.93366074 1.73090422 5.21666577 3.63171332 7.70703125 5.9609375 C8.54427734 6.71020508 8.54427734 6.71020508 9.3984375 7.47460938 C24.46767609 21.05612059 38.63827722 39.17522298 46.70703125 57.9609375 C46.70703125 58.9509375 46.70703125 59.9409375 46.70703125 60.9609375 C47.36703125 60.9609375 48.02703125 60.9609375 48.70703125 60.9609375 C58.48466729 81.17659141 69.08577466 103.4218288 62.75 126.4375 C59.88684809 132.60009365 56.01670874 136.16371086 49.76953125 138.7734375 C41.46551523 141.33279922 31.78241692 139.84500381 23.70703125 136.9609375 C23.70703125 136.3009375 23.70703125 135.6409375 23.70703125 134.9609375 C22.37671875 134.80625 22.37671875 134.80625 21.01953125 134.6484375 C17.62887857 133.94471713 15.59786895 132.79787525 12.70703125 130.9609375 C13.04476562 131.98832031 13.3825 133.01570312 13.73046875 134.07421875 C14.18135379 135.47384106 14.63185365 136.87358749 15.08203125 138.2734375 C15.30375 138.94439453 15.52546875 139.61535156 15.75390625 140.30664062 C17.30707746 145.17172104 18.33076054 150.00918422 19.19335938 155.0402832 C19.72587494 158.06807962 20.33273768 161.07269791 20.9609375 164.08203125 C21.17556641 165.12037109 21.39019531 166.15871094 21.61132812 167.22851562 C22.0495151 169.3388345 22.49221278 171.44822187 22.93945312 173.55664062 C27.54041465 195.97764044 28.83200161 221.2163558 17.70703125 241.9609375 C17.20300781 242.92644531 16.69898438 243.89195312 16.1796875 244.88671875 C9.3430261 257.3353335 -0.44355913 266.611197 -14.29296875 270.9609375 C-17.01086871 271.20441604 -19.57696093 271.34142623 -22.29296875 271.3359375 C-23.03828857 271.33577637 -23.7836084 271.33561523 -24.55151367 271.33544922 C-32.78991473 271.1681631 -41.15346673 269.21626983 -48.29296875 264.9609375 C-50.4421266 261.73720073 -50.67583678 260.69390076 -50.29296875 256.9609375 C-48.29296875 254.9609375 -48.29296875 254.9609375 -45.79296875 254.5859375 C-42.5093121 254.93775786 -40.58117637 255.59745245 -37.60546875 256.8984375 C-29.99392744 260.0984849 -22.35719379 261.21162751 -14.54296875 258.0859375 C-1.42595174 251.527429 5.24934788 241.24208114 10.70703125 227.9609375 C11.03703125 227.3009375 11.36703125 226.6409375 11.70703125 225.9609375 C14.51240827 206.6439129 13.62775745 186.05670239 9.70703125 166.9609375 C9.37703125 166.6309375 9.04703125 166.3009375 8.70703125 165.9609375 C8.23308019 163.58816343 7.8029764 161.22009809 7.39453125 158.8359375 C5.7223948 149.53520368 3.92673521 140.00818612 0.109375 131.328125 C-1.43145654 127.6284125 -1.68748069 124.81350852 -1.7890625 120.87890625 C-1.95535156 120.24597656 -2.12164063 119.61304688 -2.29296875 118.9609375 C-3.62175759 118.28525825 -4.95578899 117.61985519 -6.29296875 116.9609375 C-8.65216129 114.90138339 -10.73234701 112.57363072 -12.85546875 110.2734375 C-13.47244629 109.60715332 -14.08942383 108.94086914 -14.72509766 108.25439453 C-24.23984604 97.80167611 -32.32086935 86.24886833 -39.29296875 73.9609375 C-39.82148437 73.04957031 -40.35 72.13820313 -40.89453125 71.19921875 C-44.66673296 63.98145849 -45.54810242 57.02671451 -44.29296875 48.9609375 C-42.29296875 45.5859375 -42.29296875 45.5859375 -39.29296875 43.9609375 C-35.18415173 43.22000328 -32.93110421 43.10122901 -29.24609375 45.03515625 C-27.10577861 46.54913886 -25.20924037 48.17241732 -23.29296875 49.9609375 C-22.70644531 50.49460937 -22.11992188 51.02828125 -21.515625 51.578125 C-15.83389803 57.37580559 -12.74219587 64.60075604 -9.31787109 71.84521484 C-8.32924272 73.88605656 -7.28861318 75.88745912 -6.21875 77.88671875 C-1.59457996 86.59632057 1.69132273 95.32376607 4.48046875 104.78125 C4.69413086 105.49700195 4.90779297 106.21275391 5.12792969 106.95019531 C5.64688111 108.75208567 6.1067343 110.5707507 6.55859375 112.390625 C7.46502845 115.14932717 7.46502845 115.14932717 10.046875 116.12890625 C11.36365234 116.54076172 11.36365234 116.54076172 12.70703125 116.9609375 C14.2553383 118.02623715 15.77547336 119.13330195 17.26953125 120.2734375 C25.47727962 126.10301212 34.41154392 130.68000052 44.70703125 128.9609375 C47.92631316 127.68663841 49.20923699 126.91741361 50.80078125 123.859375 C55.61140546 108.47367169 49.33601264 91.94102993 42.69238281 78.10864258 C41.67653605 75.89446915 40.82178425 73.65503208 39.96484375 71.375 C37.71029538 65.71323301 34.83039855 60.55895351 31.70703125 55.3359375 C31.13887695 54.38170898 30.57072266 53.42748047 29.98535156 52.44433594 C15.11170817 27.06491474 15.11170817 27.06491474 -7.29296875 9.9609375 C-17.4774302 8.77866171 -25.84360275 11.70996391 -35.29296875 14.9609375 C-37.10237872 15.49240638 -38.91443541 16.01506114 -40.73046875 16.5234375 C-44.61779547 17.67475889 -48.18921923 19.21816019 -51.8671875 20.91015625 C-58.41931607 23.74835687 -65.05243859 26.57540965 -72.29296875 25.9609375 C-74.29296875 23.9609375 -74.29296875 23.9609375 -74.66796875 21.5859375 C-74.16965775 18.09776047 -72.96528336 17.20800942 -70.29296875 14.9609375 C-67.59375 13.8359375 -67.59375 13.8359375 -64.60546875 12.9609375 C-60.83239285 11.79471404 -57.24396225 10.57488365 -53.66796875 8.8984375 C-49.78816296 7.10560305 -45.88284234 5.8526871 -41.77734375 4.6796875 C-37.01068738 3.30065484 -32.26977605 1.75401027 -27.6640625 -0.09375 C-19.17870814 -2.47318888 -8.41959113 -2.65671559 0 0 Z " fill="#FDC70B" transform="translate(589.29296875,243.0390625)"/>
<path d="M0 0 C0 0.66 0 1.32 0 2 C0.763125 2.20625 1.52625 2.4125 2.3125 2.625 C5.99963853 4.51144297 6.65450248 6.10513874 8 10 C9.38625485 20.27347769 5.22744678 27.41471963 -0.80078125 35.4375 C-4.27681399 39.48772643 -8.22727601 42.613638 -13 45 C-12.18963707 52.92171112 -9.85836056 58.48954974 -4 64 C2.35480464 68.51653739 9.42907818 68.96608117 17 68 C21.97121346 66.77100556 26.43803047 65.03017018 30.0625 61.3125 C32.2105806 57.6399751 32.6266225 55.13399852 32.76171875 50.953125 C33 49 33 49 35 47 C37.5 46.75 37.5 46.75 40 47 C42.49748965 49.49748965 42.4096423 50.52865085 42.5625 54 C42.42785871 60.83977768 39.65628066 65.14203487 35 70 C32.46505501 72.00350012 29.8910913 73.56935688 27 75 C26.34902344 75.35835938 25.69804688 75.71671875 25.02734375 76.0859375 C21.76291417 77.55776124 18.54791101 77.6452089 15 78 C15.3196875 78.99257813 15.639375 79.98515625 15.96875 81.0078125 C17.97198567 88.07241488 18.61038981 97.00364803 15.83203125 103.8984375 C12.09132562 109.68739583 7.59990718 113.81844072 1 116 C-7.65347701 116.8418541 -15.48730645 116.73626333 -23 112 C-23.67289062 111.59910156 -24.34578125 111.19820313 -25.0390625 110.78515625 C-31.02138058 106.80079382 -35.75978714 101.41292128 -39 95 C-39.599162 91.21778987 -39.52709873 87.78486172 -39 84 C-39.69996094 84.32097656 -40.39992188 84.64195312 -41.12109375 84.97265625 C-49.72183944 88.04185044 -58.29249461 86.18568043 -66.328125 82.43359375 C-71.05226763 79.8988564 -74.97060388 77.54409418 -78 73 C-78.1875 70.375 -78.1875 70.375 -78 68 C-77 67 -77 67 -74.375 66.5625 C-70.20668937 67.10283656 -68.78125855 68.57489941 -65.90625 71.4921875 C-59.47826169 76.57662088 -49.78245543 75.80725952 -42 75 C-35.83396521 73.55788061 -30.86500195 71.15333593 -27 66 C-23.8008434 59.48743122 -23.34752443 53.19016063 -23 46 C-24.423125 46.1546875 -24.423125 46.1546875 -25.875 46.3125 C-33.77085283 46.28059756 -40.67985044 40.99292206 -46.2421875 35.8359375 C-52.17075393 29.64387923 -54.44865654 24.2780315 -54.3359375 15.72265625 C-53.73159269 10.82465238 -51.03548566 8.6676268 -47.37890625 5.671875 C-34.0857982 -3.81911827 -15.22902926 -4.33628396 0 0 Z " fill="#384321" transform="translate(521,383)"/>
<path d="M0 0 C0 0.66 0 1.32 0 2 C0.763125 2.20625 1.52625 2.4125 2.3125 2.625 C5.99963853 4.51144297 6.65450248 6.10513874 8 10 C9.38646445 20.27503107 5.22629572 27.41864074 -0.8046875 35.44140625 C-3.81619898 38.95126393 -7.11585437 41.52827096 -11 44 C-11.99 44.66 -12.98 45.32 -14 46 C-16.04296875 46.1953125 -16.04296875 46.1953125 -18.1875 46.125 C-19.445625 46.08375 -20.70375 46.0425 -22 46 C-22 49.63 -22 53.26 -22 57 C-22.33 57 -22.66 57 -23 57 C-23 53.37 -23 49.74 -23 46 C-24.423125 46.1546875 -24.423125 46.1546875 -25.875 46.3125 C-33.77085283 46.28059756 -40.67985044 40.99292206 -46.2421875 35.8359375 C-52.17075393 29.64387923 -54.44865654 24.2780315 -54.3359375 15.72265625 C-53.73159269 10.82465238 -51.03548566 8.6676268 -47.37890625 5.671875 C-34.0857982 -3.81911827 -15.22902926 -4.33628396 0 0 Z " fill="#73A806" transform="translate(521,383)"/>
<path d="M0 0 C4.95 0 9.9 0 15 0 C20.47346234 11.82267866 25.10815324 24.0243539 29.109375 36.41796875 C30.1885447 39.54661425 31.53276031 42.49779525 32.91796875 45.5 C34.32289793 48.74604577 35.54866981 52.04974528 36.75 55.375 C37.17796875 56.55835938 37.6059375 57.74171875 38.046875 58.9609375 C39 62 39 62 39 65 C34.38 65 29.76 65 25 65 C22 57.5 22 57.5 22 53 C12.43 53 2.86 53 -7 53 C-7.66 56.63 -8.32 60.26 -9 64 C-10 65 -10 65 -13.16015625 65.09765625 C-14.44792969 65.08605469 -15.73570312 65.07445312 -17.0625 65.0625 C-18.99802734 65.04896484 -18.99802734 65.04896484 -20.97265625 65.03515625 C-21.97167969 65.02355469 -22.97070312 65.01195312 -24 65 C-20.42510617 52.85550252 -16.20694474 41.04710298 -11.625 29.25 C-11.16818848 28.0736499 -11.16818848 28.0736499 -10.70214844 26.87353516 C-8.56934058 21.4047108 -6.34873654 15.97860672 -4.06640625 10.5703125 C-2.6177421 7.07866044 -1.29725553 3.55038357 0 0 Z " fill="#3A4622" transform="translate(323,632)"/>
<path d="M0 0 C2.1953125 1.36328125 2.1953125 1.36328125 5.2578125 3.86328125 C5.2578125 2.21328125 5.2578125 0.56328125 5.2578125 -1.13671875 C9.2178125 -1.13671875 13.1778125 -1.13671875 17.2578125 -1.13671875 C17.2578125 14.37328125 17.2578125 29.88328125 17.2578125 45.86328125 C13.2978125 45.86328125 9.3378125 45.86328125 5.2578125 45.86328125 C5.2578125 44.54328125 5.2578125 43.22328125 5.2578125 41.86328125 C4.2471875 42.68828125 3.2365625 43.51328125 2.1953125 44.36328125 C-3.98549288 48.2015394 -10.73172096 47.90995671 -17.7421875 46.86328125 C-24.55445007 44.24318026 -28.64885945 39.33993685 -31.7421875 32.86328125 C-33.92482706 26.31536258 -34.07332214 17.56200652 -31.71875 11.01953125 C-30.24985592 8.64982367 -28.73081154 6.81461858 -26.7421875 4.86328125 C-26.1234375 4.24582031 -25.5046875 3.62835937 -24.8671875 2.9921875 C-18.00400955 -2.63613836 -8.14462535 -3.37619085 0 0 Z " fill="#3B4825" transform="translate(561.7421875,651.13671875)"/>
<path d="M0 0 C0.73605469 0.01353516 1.47210938 0.02707031 2.23046875 0.04101562 C4.02896743 0.07605131 5.82708422 0.12984712 7.625 0.1875 C7.625 0.8475 7.625 1.5075 7.625 2.1875 C8.7696875 2.620625 8.7696875 2.620625 9.9375 3.0625 C12.625 4.1875 12.625 4.1875 15.625 6.1875 C15.625 4.5375 15.625 2.8875 15.625 1.1875 C19.255 1.1875 22.885 1.1875 26.625 1.1875 C26.625 16.3675 26.625 31.5475 26.625 47.1875 C22.665 47.1875 18.705 47.1875 14.625 47.1875 C14.625 45.8675 14.625 44.5475 14.625 43.1875 C13.89410156 43.72890625 13.89410156 43.72890625 13.1484375 44.28125 C6.19307154 48.83385317 -0.22147377 49.20054367 -8.375 48.1875 C-14.61836771 46.60732021 -17.55338424 41.65470735 -20.9921875 36.52734375 C-24.66015342 30.32081384 -24.34528167 21.88267655 -22.9140625 14.95703125 C-20.75175391 9.39862623 -16.68910824 4.65028667 -11.69921875 1.49609375 C-7.60858759 -0.11420171 -4.33821634 -0.15297508 0 0 Z " fill="#384421" transform="translate(239.375,649.8125)"/>
<path d="M0 0 C3.96 0 7.92 0 12 0 C12.33 1.65 12.66 3.3 13 5 C13.66 5 14.32 5 15 5 C15 4.34 15 3.68 15 3 C20.17021093 -0.44680728 26.88921579 -0.82281654 33 0 C36.3125 1.875 36.3125 1.875 39 4 C40.3191582 4.69429379 41.64649406 5.37530495 43 6 C43.94875 5.195625 44.8975 4.39125 45.875 3.5625 C50.46388843 -0.32807932 53.91314957 -0.33528866 59.87890625 -0.28515625 C65.26936134 0.2073384 69.18877698 2.13035043 72.9375 6 C75.36056378 10.56106123 75.13166671 15.21269995 75.09765625 20.265625 C75.0962413 21.05902283 75.09482635 21.85242065 75.09336853 22.66986084 C75.08778415 25.19661272 75.07523454 27.72327504 75.0625 30.25 C75.05748298 31.96614455 75.05292043 33.68229049 75.04882812 35.3984375 C75.03781984 39.59899269 75.02056596 43.79948117 75 48 C71.04 48 67.08 48 63 48 C62.970271 46.62279785 62.970271 46.62279785 62.93994141 45.21777344 C62.86173045 41.80328175 62.77503416 38.38922298 62.68261719 34.97509766 C62.64439334 33.49894464 62.60952897 32.02270057 62.578125 30.54638672 C62.53233014 28.42121906 62.47436163 26.29667458 62.4140625 24.171875 C62.3826416 22.8940918 62.3512207 21.61630859 62.31884766 20.29980469 C62.02488248 17.25751274 61.70224419 15.500053 60 13 C57.71273777 11.85636888 56.17147573 11.73498068 53.625 11.625 C52.85414063 11.57601562 52.08328125 11.52703125 51.2890625 11.4765625 C47.81671633 12.27058023 46.90813144 14.05815396 45 17 C44.36207191 20.47201124 44.36207191 20.47201124 44.390625 24.26953125 C44.37408875 24.95053391 44.35755249 25.63153656 44.34051514 26.33317566 C44.29220697 28.49304371 44.2707049 30.65220875 44.25 32.8125 C44.22182556 34.28323817 44.19189606 35.75394383 44.16015625 37.22460938 C44.08645604 40.81625414 44.03677515 44.40776571 44 48 C40.04 48 36.08 48 32 48 C31.99589111 47.05157227 31.99178223 46.10314453 31.98754883 45.12597656 C31.96054254 41.59917184 31.91143624 38.0741036 31.84741211 34.54785156 C31.82424783 33.02322067 31.80984 31.49843012 31.80444336 29.97363281 C31.79514105 27.77828678 31.75413304 25.58544588 31.70703125 23.390625 C31.6913208 22.07094727 31.67561035 20.75126953 31.65942383 19.39160156 C31.29659714 15.84874177 31.29659714 15.84874177 28.58911133 13.5690918 C24.64907653 11.18129325 22.54596257 11.48674616 18 12 C15.55226828 13.50022267 15.13992227 14.43687381 14.45336914 17.19995117 C13.94210065 20.35759165 13.78579248 23.41592098 13.68359375 26.61328125 C13.64169922 27.86044922 13.59980469 29.10761719 13.55664062 30.39257812 C13.51732422 31.68615234 13.47800781 32.97972656 13.4375 34.3125 C13.39431641 35.62541016 13.35113281 36.93832031 13.30664062 38.29101562 C13.20072832 41.52722482 13.09987581 44.76359889 13 48 C8.71 48 4.42 48 0 48 C0 32.16 0 16.32 0 0 Z " fill="#3E4B28" transform="translate(447,650)"/>
<path d="M0 0 C4.62 0 9.24 0 14 0 C16.52910129 5.59064496 18.56420972 11.31696743 20.60546875 17.1015625 C22.05763553 21.19261299 23.58847406 25.25253488 25.125 29.3125 C27.21271299 34.83677759 29.19269304 40.37726723 31 46 C31.66 46 32.32 46 33 46 C33.10594482 45.45037598 33.21188965 44.90075195 33.32104492 44.33447266 C34.47045724 38.74379775 36.14740776 33.64606985 38.3125 28.375 C41.13446379 21.33594425 43.65143569 14.26273731 45.95703125 7.0390625 C47 4 47 4 49 0 C53.62 0 58.24 0 63 0 C62.566875 1.27875 62.13375 2.5575 61.6875 3.875 C60.57446114 7.18823194 59.56867786 10.51011439 58.625 13.875 C57.59457105 17.36464855 56.3327266 20.53842831 54.75 23.8125 C52.19457143 29.21584595 50.34494539 34.76362014 48.5 40.4375 C41.71805901 61.28194099 41.71805901 61.28194099 39 64 C36.46950598 64.07313567 33.96695163 64.09247527 31.4375 64.0625 C30.72658203 64.05798828 30.01566406 64.05347656 29.28320312 64.04882812 C27.52209987 64.03700864 25.76103964 64.01907263 24 64 C21.43404 58.06884656 18.98592675 52.15311731 17 46 C15.35537626 40.91421576 13.38267063 36.04625598 11.28515625 31.1328125 C9.44295791 26.64210409 7.87265631 22.06473231 6.26953125 17.484375 C4.64550818 13.02705629 2.80804741 8.67821373 0.91796875 4.328125 C0 2 0 2 0 0 Z " fill="#3B4823" transform="translate(103,633)"/>
<path d="M0 0 C5.13437561 3.54465262 8.30569574 6.82077269 10 13 C10 16.96 10 20.92 10 25 C-1.22 25 -12.44 25 -24 25 C-20.23564475 32.96950164 -20.23564475 32.96950164 -16.09765625 33.88671875 C-14.59525391 33.78810547 -14.59525391 33.78810547 -13.0625 33.6875 C-11.48855469 33.58501953 -11.48855469 33.58501953 -9.8828125 33.48046875 C-6.49083607 32.91513935 -3.92203141 31.79817317 -1 30 C-0.01 30 0.98 30 2 30 C7 35.34883721 7 35.34883721 7 38 C-0.28888499 44.04822371 -8.78939506 45.63937769 -18.0390625 45.4296875 C-25.10344135 44.40451379 -29.65939882 39.83655863 -34.0625 34.5 C-38.52706816 27.64258905 -37.99578709 20.37725027 -36.55078125 12.57421875 C-34.52896605 5.94214979 -29.61800954 1.62316591 -23.875 -1.9375 C-16.2690565 -4.70799073 -6.89573238 -4.13743943 0 0 Z " fill="#3A4623" transform="translate(667,653)"/>
<path d="M0 0 C1.46491151 2.79607022 2.62245922 5.57006766 3.625 8.5625 C4.01558594 9.70912109 4.01558594 9.70912109 4.4140625 10.87890625 C5 13 5 13 5 16 C5.66 16 6.32 16 7 16 C7.27457031 16.72703125 7.54914063 17.4540625 7.83203125 18.203125 C10.8784193 25.49815458 15.4483075 31.84898176 20.484375 37.89453125 C22 40 22 40 22.9453125 42.3671875 C27.75526435 54.37425249 38.13711416 65.8826767 50 71 C60.63915194 75.20144854 72.98294535 76.0212755 83.6875 71.75 C86.71970921 70.36041615 89.02295238 68.98104533 91.6015625 66.8515625 C94.84797895 64.3453713 97.00230124 64.54743033 101 65 C103 67 103 67 103.34375 69.40234375 C102.80023841 73.50956203 100.37887124 74.84822302 97.2890625 77.359375 C94.0341692 79.69223368 90.71374087 81.51026744 87 83 C86.16984375 83.35835937 85.3396875 83.71671875 84.484375 84.0859375 C79.44400074 85.40818815 74.56517897 85.34046002 69.375 85.3125 C68.29847168 85.30686035 67.22194336 85.3012207 66.11279297 85.29541016 C50.1173755 85.0505947 39.14362564 80.50393908 27.4453125 69.5390625 C13.20199123 54.74967141 5.98516081 36.80289636 1.6875 17.0625 C1.51581299 16.28181152 1.34412598 15.50112305 1.16723633 14.69677734 C0.14542764 9.70446634 -0.15649558 5.09480063 0 0 Z " fill="#FCC809" transform="translate(384,435)"/>
<path d="M0 0 C1.41152344 -0.00773437 1.41152344 -0.00773437 2.8515625 -0.015625 C5.375 0.25 5.375 0.25 8.375 2.25 C8.5625 5.375 8.5625 5.375 8.375 8.25 C7.50617188 8.38535156 6.63734375 8.52070313 5.7421875 8.66015625 C-3.03675097 10.18433063 -3.03675097 10.18433063 -9.30859375 15.96484375 C-9.74300781 16.71894531 -10.17742187 17.47304688 -10.625 18.25 C-11.44677734 19.58224609 -11.44677734 19.58224609 -12.28515625 20.94140625 C-18.15904253 31.46276299 -20.91294911 42.98251339 -23.91992188 54.58056641 C-24.49531381 56.75900665 -25.12471901 58.92312066 -25.76953125 61.08203125 C-26.6663902 64.40327605 -27.12112256 67.58237082 -27.5 71 C-28.10165205 75.97257114 -28.9315649 80.73741137 -30.10858154 85.60209656 C-32.86467572 97.22575628 -33.28606239 108.5353729 -33.375 120.4375 C-33.40325657 122.37437437 -33.43319687 124.31122493 -33.46484375 126.24804688 C-33.5375385 130.91531988 -33.58780473 135.58231473 -33.625 140.25 C-34.285 139.92 -34.945 139.59 -35.625 139.25 C-35.99738718 136.92258011 -36.32336866 134.58764285 -36.625 132.25 C-36.955 131.21875 -37.285 130.1875 -37.625 129.125 C-40.60523828 119.13527437 -39.78764909 107.75004734 -39.75 97.4375 C-39.74734131 96.12612061 -39.74468262 94.81474121 -39.74194336 93.46362305 C-39.62339471 69.24518413 -39.62339471 69.24518413 -37.625 63.25 C-37.39888922 60.0952163 -37.23235868 56.94709637 -37.10742188 53.78710938 C-36.82419498 48.39511054 -35.56090447 45.65385671 -32.625 41.25 C-32.08997581 39.8379632 -31.60047169 38.40826976 -31.14453125 36.96875 C-26.79049095 23.63056935 -22.06962144 11.20373325 -10.625 2.25 C-6.99585032 0.42949518 -4.04158735 -0.0222677 0 0 Z " fill="#FCC70B" transform="translate(427.625,285.75)"/>
<path d="M0 0 C3.96 0 7.92 0 12 0 C12 1.98 12 3.96 12 6 C12.66 6 13.32 6 14 6 C14.33 5.01 14.66 4.02 15 3 C19.8350634 -0.2233756 25.60131658 -0.3598606 31.32421875 0.24609375 C35.75999522 1.20084183 38.8496838 2.75967476 42 6 C45.08255467 10.97468244 45.4088198 14.80085086 45.29296875 20.4609375 C45.28872391 21.25150543 45.28447906 22.04207336 45.28010559 22.8565979 C45.26341301 25.3630894 45.22577983 27.86875461 45.1875 30.375 C45.17244092 32.08201958 45.15875466 33.78905185 45.14648438 35.49609375 C45.11354056 39.66437725 45.06182493 43.83204889 45 48 C41.04 48 37.08 48 33 48 C32.99589111 47.08710205 32.99178223 46.1742041 32.98754883 45.23364258 C32.96050598 41.83165222 32.91136138 38.43144939 32.84741211 35.0300293 C32.82428007 33.56074053 32.8098476 32.09128708 32.80444336 30.62182617 C32.79511721 28.50335655 32.75405873 26.38745935 32.70703125 24.26953125 C32.6913208 22.99698486 32.67561035 21.72443848 32.65942383 20.41333008 C31.83834177 16.16321968 30.33077194 14.67544577 27 12 C24.75956884 11.22559603 24.75956884 11.22559603 22.5 11.375 C21.40171875 11.35566406 21.40171875 11.35566406 20.28125 11.3359375 C16.79931763 12.3495137 15.29219318 14.23291714 13 17 C12.22673831 20.36687898 12.22673831 20.36687898 12.29296875 24.05078125 C12.27784744 24.70958786 12.26272614 25.36839447 12.24714661 26.04716492 C12.20441434 28.135962 12.19544735 30.2233102 12.1875 32.3125 C12.16434386 33.73506417 12.13897617 35.15759417 12.11132812 36.58007812 C12.04862384 40.05335804 12.01617216 43.52615613 12 47 C8.04 47 4.08 47 0 47 C0 31.49 0 15.98 0 0 Z " fill="#3C4927" transform="translate(369,650)"/>
<path d="M0 0 C1.29454102 0.2484668 1.29454102 0.2484668 2.61523438 0.50195312 C13.29164167 2.66664167 13.29164167 2.66664167 16.8125 6.1875 C17.375 8.8125 17.375 8.8125 16.8125 12.1875 C11.75524551 18.20935344 3.81963712 23.68393144 -3.1875 27.1875 C-3.75696521 32.50250865 -3.55401929 35.27412581 -0.3125 39.625 C1.91958304 42.38005902 3.27349299 44.01300292 6.9140625 44.42578125 C13.12714099 44.60851885 17.64886029 43.75315421 22.8125 40.1875 C23.29847656 39.64738281 23.78445313 39.10726562 24.28515625 38.55078125 C25.8125 37.1875 25.8125 37.1875 29.8125 37.1875 C30.125 39.4375 30.125 39.4375 29.8125 42.1875 C24.76374461 47.57283908 16.94320738 51.44942821 9.5625 51.75 C2.75120816 51.33558443 -0.69784005 47.8510094 -5.0625 42.9375 C-6.11129494 41.69347483 -7.1554746 40.44547179 -8.1875 39.1875 C-10.40163243 40.21549006 -12.20132171 41.1991228 -14.078125 42.77734375 C-18.28068264 45.58683136 -23.36549162 44.95309416 -28.1875 44.1875 C-33.168357 41.81189253 -36.92667411 38.27435825 -39.1875 33.1875 C-39.1875 32.5275 -39.1875 31.8675 -39.1875 31.1875 C-39.8475 31.1875 -40.5075 31.1875 -41.1875 31.1875 C-40.8575 29.5375 -40.5275 27.8875 -40.1875 26.1875 C-37.9375 26.25 -37.9375 26.25 -35.1875 27.1875 C-33.54482522 29.40371885 -32.44676885 31.71238535 -31.1875 34.1875 C-28.31394274 37.06105726 -25.67956098 36.89769151 -21.734375 37.22265625 C-18.22281205 37.17418376 -16.04316964 36.18646875 -13.1875 34.1875 C-10.8099879 30.62123185 -10.66408939 29.39491608 -11.1875 25.1875 C-12.44033943 22.59274311 -14.02898981 20.28830123 -15.6875 17.9375 C-20.1875 11.39695946 -20.1875 11.39695946 -20.1875 9.1875 C-20.8475 9.1875 -21.5075 9.1875 -22.1875 9.1875 C-23.62422457 2.96169355 -23.62422457 2.96169355 -21.8125 -0.25 C-15.4958466 -4.00991274 -6.81961201 -1.41967699 0 0 Z " fill="#FDC705" transform="translate(281.1875,369.8125)"/>
<path d="M0 0 C3.31102149 1.40081678 5.71278791 3.4446555 8.4296875 5.765625 C11.70073607 8.33689701 15.20484191 9.78172131 19.1875 10.875 C22.70371799 12.28148719 23.46126803 13.59859249 25 17 C26.83252689 22.92953345 27.68372782 30.76575067 24.765625 36.37109375 C22.30422792 39.30161849 20.672871 40.77570967 17 42 C9.0774446 42.66111611 2.6616579 42.56799399 -4 38 C-4.9075 37.4225 -5.815 36.845 -6.75 36.25 C-11.48200802 31.51799198 -13.2744253 26.6586744 -13.8125 20 C-13.70522448 16.29666252 -13.45988712 14.57175156 -11.12109375 11.6640625 C-9.54690392 10.31031112 -7.92831556 9.00647219 -6.26953125 7.7578125 C-3.34018736 5.48895751 -1.82992371 3.18247602 0 0 Z " fill="#F9C700" transform="translate(504,449)"/>
<path d="M0 0 C25.91683992 0 25.91683992 0 31.91796875 5.87890625 C33.34895437 8.68405134 33.36393932 10.79970159 33.3125 13.9375 C33.30863281 14.95714844 33.30476563 15.97679687 33.30078125 17.02734375 C32.97588682 20.23831336 32.66093813 22.22261861 31 25 C25.54005178 29.1318527 21.25629288 29.52826675 14.5625 29.25 C10.3240625 29.12625 10.3240625 29.12625 6 29 C6 35.27 6 41.54 6 48 C4.02 48 2.04 48 0 48 C0 32.16 0 16.32 0 0 Z " fill="#374220" transform="translate(258,722)"/>
<path d="M0 0 C4.29 0 8.58 0 13 0 C13 22.44 13 44.88 13 68 C8.71 68 4.42 68 0 68 C0 45.56 0 23.12 0 0 Z " fill="#4F5B3B" transform="translate(195,630)"/>
<path d="M0 0 C3.96 0 7.92 0 12 0 C12 22.44 12 44.88 12 68 C8.04 68 4.08 68 0 68 C0 45.56 0 23.12 0 0 Z " fill="#3C4926" transform="translate(611,630)"/>
<path d="M0 0 C3.96 0 7.92 0 12 0 C12 22.11 12 44.22 12 67 C8.04 67 4.08 67 0 67 C0 44.89 0 22.78 0 0 Z " fill="#35411C" transform="translate(588,630)"/>
<path d="M0 0 C0 0.66 0 1.32 0 2 C0.7425 2.226875 1.485 2.45375 2.25 2.6875 C5.76679269 4.36596924 7.07869347 5.58434395 9 9 C9 12.3 9 15.6 9 19 C0.42 19 -8.16 19 -17 19 C-14.94596069 23.82143028 -14.94596069 23.82143028 -12 28 C-6.22762162 28.55585866 -1.7827179 28.58703842 3 25 C3.66 25 4.32 25 5 25 C5.66 26.65 6.32 28.3 7 30 C1.31703372 34.76140418 -2.69039153 35.41422327 -9.984375 35.34375 C-14.46870909 34.83258238 -16.92533472 33.20313318 -20 30 C-20.804375 29.175 -21.60875 28.35 -22.4375 27.5 C-24.86261898 22.06773348 -24.73129578 16.85036623 -24 11 C-22.375 7.5 -22.375 7.5 -20 5 C-19.21625 4.05125 -18.4325 3.1025 -17.625 2.125 C-12.85899499 -1.75979054 -5.75278815 -0.35462393 0 0 Z " fill="#4C5636" transform="translate(515,735)"/>
<path d="M0 0 C3.35916116 1.32500246 5.45801304 3.45801304 8 6 C8.22705078 8.88916016 8.22705078 8.88916016 8.1953125 12.5390625 C8.18886719 13.84101562 8.18242187 15.14296875 8.17578125 16.484375 C8.15906929 17.86458595 8.14213939 19.24479429 8.125 20.625 C8.11497006 22.01301452 8.10584423 23.40103589 8.09765625 24.7890625 C8.07401863 28.19288026 8.04106867 31.59635506 8 35 C6.02 35 4.04 35 2 35 C2 33.68 2 32.36 2 31 C0.576875 31.99 0.576875 31.99 -0.875 33 C-5.45263685 35.60515918 -9.84970888 35.88166001 -15 35 C-18.39488422 32.94892412 -19.80323081 31.29515379 -22 28 C-22.5625 24.6875 -22.5625 24.6875 -22 21 C-18.63570248 17.05595408 -14.95003813 14.18939219 -9.7421875 13.68359375 C-8.46601563 13.60238281 -7.18984375 13.52117188 -5.875 13.4375 C-4.59367187 13.35371094 -3.31234375 13.26992188 -1.9921875 13.18359375 C-1.00476563 13.12300781 -0.01734375 13.06242188 1 13 C0.39816251 10.97954558 -0.27306096 8.97888961 -1 7 C-4.96769422 5.01615289 -9.85529486 5.67369435 -14 7 C-14 7.66 -14 8.32 -14 9 C-16.16874252 8.49396008 -17.99967627 8.00016187 -20 7 C-16.73642231 -1.60397754 -7.79284072 -0.91047008 0 0 Z " fill="#384320" transform="translate(450,735)"/>
<path d="M0 0 C4.40756281 2.22113402 7.27541639 4.91312458 10 9 C10 12.3 10 15.6 10 19 C1.42 19 -7.16 19 -16 19 C-13.16666667 26.66666667 -13.16666667 26.66666667 -10 28 C-8.35744209 28.12114921 -6.70947522 28.17540767 -5.0625 28.1875 C-3.74958984 28.20876953 -3.74958984 28.20876953 -2.41015625 28.23046875 C0.26244335 28.16663349 0.26244335 28.16663349 3 26 C5.1875 26.375 5.1875 26.375 7 27 C7 28.32 7 29.64 7 31 C2.78737295 34.79136434 -2.56621683 34.96587891 -8 35 C-14.17948522 34.26684074 -16.79583673 31.55656356 -20.6171875 26.97265625 C-23.79052475 22.44572034 -23.56554657 17.30805852 -23 12 C-21.48635952 7.24935729 -18.35235281 3.58014697 -14.18359375 0.890625 C-9.53125152 -1.0069314 -4.88009131 -0.93077238 0 0 Z " fill="#465131" transform="translate(318,735)"/>
<path d="M0 0 C1.89492188 0.01353516 1.89492188 0.01353516 3.828125 0.02734375 C4.79234375 0.03894531 5.7565625 0.05054688 6.75 0.0625 C6.75 0.7225 6.75 1.3825 6.75 2.0625 C8.07 2.0625 9.39 2.0625 10.75 2.0625 C10.75 2.7225 10.75 3.3825 10.75 4.0625 C13.225 5.0525 13.225 5.0525 15.75 6.0625 C15.42 7.3825 15.09 8.7025 14.75 10.0625 C12.5625 10.75 12.5625 10.75 9.75 11.0625 C8.98816406 10.58296875 8.22632813 10.1034375 7.44140625 9.609375 C2.80039801 6.94197404 -2.04993333 7.4426245 -7.25 8.0625 C-10.99546546 9.28256405 -13.51760658 11.08309654 -15.90625 14.27734375 C-18.63585883 19.93493414 -18.35573592 27.46588584 -16.5234375 33.42578125 C-14.50740394 37.25296692 -12.0506425 39.18395894 -8.25 41.0625 C-1.66557489 41.96641839 4.0319373 41.63628918 9.75 38.0625 C12.125 37.375 12.125 37.375 13.75 37.0625 C13.75 37.7225 13.75 38.3825 13.75 39.0625 C14.74 39.3925 15.73 39.7225 16.75 40.0625 C16.75 40.7225 16.75 41.3825 16.75 42.0625 C15.140625 43.28125 15.140625 43.28125 13 44.5625 C12.30390625 44.9853125 11.6078125 45.408125 10.890625 45.84375 C10.18421875 46.2459375 9.4778125 46.648125 8.75 47.0625 C8.1415625 47.43503906 7.533125 47.80757812 6.90625 48.19140625 C1.38736861 50.42095435 -6.17264418 50.14634859 -11.734375 48.1875 C-18.64659473 44.1151845 -23.94683462 37.73971793 -26.25 30.0625 C-27.06624062 22.39890747 -26.43239221 16.28211633 -21.66796875 9.96484375 C-15.17877436 2.17498294 -10.06574539 -0.09320135 0 0 Z " fill="#3E4A28" transform="translate(406.25,720.9375)"/>
<path d="M0 0 C3.96 0 7.92 0 12 0 C13 1 13 1 13.12025452 2.86659241 C13.1169236 4.08903908 13.1169236 4.08903908 13.11352539 5.33618164 C13.11344986 6.2570607 13.11337433 7.17793976 13.11329651 8.12672424 C13.10813522 9.12775681 13.10297394 10.12878937 13.09765625 11.16015625 C13.0962413 12.17975937 13.09482635 13.19936249 13.09336853 14.24986267 C13.08775097 17.52077107 13.0751955 20.79161213 13.0625 24.0625 C13.05748726 26.27408756 13.05292396 28.48567618 13.04882812 30.69726562 C13.03777583 36.13153654 13.02049944 41.56575684 13 47 C8.71 47 4.42 47 0 47 C0 31.49 0 15.98 0 0 Z " fill="#545F42" transform="translate(424,650)"/>
<path d="M0 0 C3.96 0 7.92 0 12 0 C12 15.84 12 31.68 12 48 C8.04 48 4.08 48 0 48 C0 32.16 0 16.32 0 0 Z " fill="#33401C" transform="translate(173,650)"/>
<path d="M0 0 C3.52121839 2.04230667 4.75217677 3.62826516 7 7 C7.82107258 12.59822216 7.20403613 17.2491878 4 22 C1.69594909 24.73606045 -0.02224342 25.79718362 -3.5234375 26.5234375 C-7.65706201 26.85186246 -10.71043857 26.82123534 -14.26953125 24.5546875 C-17.71515734 21.08800871 -19.47302404 17.89955603 -19.875 13 C-19.46751576 8.1252811 -17.76646708 4.9038464 -14.3359375 1.4453125 C-9.81575046 -1.35145874 -5.07747375 -0.98808793 0 0 Z " fill="#F6F6F5" transform="translate(560,661)"/>
<path d="M0 0 C0 0.66 0 1.32 0 2 C0.78375 2.268125 1.5675 2.53625 2.375 2.8125 C5 4 5 4 7 7 C7.73610478 11.97298692 7.54037042 15.93855811 5.25 20.4375 C0.55005203 25.79021852 0.55005203 25.79021852 -3.078125 26.28125 C-8.96014738 26.51497274 -12.25293458 25.3546275 -16.75 21.5 C-19.40683559 18.31179729 -19.53147872 14.4126684 -19.453125 10.4296875 C-18.73663328 6.58780948 -17.03390347 4.25372938 -14.35546875 1.46484375 C-9.90687865 -1.30169238 -5.03191501 -0.59490621 0 0 Z " fill="#F6F7F5" transform="translate(247,661)"/>
<path d="M0 0 C2.25 0.0625 2.25 0.0625 5 1 C6.64267478 3.21621885 7.74073115 5.52488535 9 8 C11.87533149 10.87533149 14.51040771 10.71783373 18.4609375 11.01953125 C22.12179147 10.99137083 24.09013657 10.2170388 27 8 C28.61033813 5.7304297 29.766116 3.51522507 31 1 C32.65 1 34.3 1 36 1 C36.08636719 1.65226562 36.17273438 2.30453125 36.26171875 2.9765625 C37.25314378 9.14340811 38.50779156 12.62009677 43 17 C46.72249642 18.86124821 50.93819163 18.4387939 55 18 C58.64890818 16.76536105 61.87378608 15.25168072 64.47265625 12.36328125 C66 11 66 11 70 11 C70.3125 13.25 70.3125 13.25 70 16 C64.95124461 21.38533908 57.13070738 25.26192821 49.75 25.5625 C42.93870816 25.14808443 39.48965995 21.6635094 35.125 16.75 C34.07620506 15.50597483 33.0320254 14.25797179 32 13 C29.78586757 14.02799006 27.98617829 15.0116228 26.109375 16.58984375 C21.90681736 19.39933136 16.82200838 18.76559416 12 18 C7.019143 15.62439253 3.26082589 12.08685825 1 7 C1 6.34 1 5.68 1 5 C0.34 5 -0.32 5 -1 5 C-0.67 3.35 -0.34 1.7 0 0 Z " fill="#454F2F" transform="translate(241,396)"/>
<path d="M0 0 C0.78246094 -0.01417969 1.56492187 -0.02835937 2.37109375 -0.04296875 C4.5625 0.1875 4.5625 0.1875 7.5625 2.1875 C7.5625 2.8475 7.5625 3.5075 7.5625 4.1875 C6.2425 4.1875 4.9225 4.1875 3.5625 4.1875 C3.8925 5.8375 4.2225 7.4875 4.5625 9.1875 C7.60636724 9.26976668 9.63425348 9.16358217 12.5625 8.1875 C13.06428488 13.10499181 13.19735744 16.94328004 10.3125 21.125 C6.98559867 25.12840216 4.93430283 26.03261904 -0.3125 26.625 C-5.12616471 26.51723139 -7.13729521 24.5662811 -10.4375 21.1875 C-13.27338164 16.93367755 -13.32862379 13.17930359 -12.4375 8.1875 C-9.35923793 2.92801542 -6.15151951 0.05050509 0 0 Z " fill="#35421F" transform="translate(332.4375,348.8125)"/>
<path d="M0 0 C0.66 0.33 1.32 0.66 2 1 C1.67 1.5775 1.34 2.155 1 2.75 C-0.27075898 5.19883862 -0.27075898 5.19883862 0 9 C2.97 9.495 2.97 9.495 6 10 C6 9.34 6 8.68 6 8 C6.99 8 7.98 8 9 8 C9.42034404 14.09498863 9.07814737 17.12887953 5 22 C1.09503156 25.50856775 -2.10276228 25.7467423 -7.2265625 25.609375 C-11.42268232 24.68741065 -13.3218141 22.6145837 -15.81640625 19.22265625 C-17.58811457 15.89558682 -17.6823272 13.68456687 -17 10 C-13.77873208 1.35343874 -8.79127601 -1.05357139 0 0 Z " fill="#3B4725" transform="translate(239,335)"/>
<path d="M0 0 C2.31 0 4.62 0 7 0 C7 3.63 7 7.26 7 11 C9.97 11 12.94 11 16 11 C16 12.98 16 14.96 16 17 C13.03 17 10.06 17 7 17 C7.13818532 20.47951523 7.28682601 23.95850495 7.4375 27.4375 C7.47681641 28.43072266 7.51613281 29.42394531 7.55664062 30.44726562 C7.61948242 31.86362305 7.61948242 31.86362305 7.68359375 33.30859375 C7.72025146 34.18314209 7.75690918 35.05769043 7.79467773 35.95874023 C7.78181066 37.9927402 7.78181066 37.9927402 9 39 C11.32817964 39.36760731 13.6618385 39.70241581 16 40 C16.042721 41.66611905 16.04063832 43.33382885 16 45 C15 46 15 46 11.75 46.25 C7.74570155 45.98304677 6.09065257 45.48969235 3 43 C-1.01326248 38.2264312 -0.34203832 33.08769395 -0.1875 27.1875 C-0.17396484 26.20845703 -0.16042969 25.22941406 -0.14648438 24.22070312 C-0.11125312 21.81323375 -0.06199265 19.40690436 0 17 C-1.98 17 -3.96 17 -6 17 C-6 15.02 -6 13.04 -6 11 C-4.02 11 -2.04 11 0 11 C0 7.37 0 3.74 0 0 Z " fill="#505B3D" transform="translate(338,724)"/>
<path d="M0 0 C2.31 0 4.62 0 7 0 C7 20.79 7 41.58 7 63 C4.69 63 2.38 63 0 63 C0 42.21 0 21.42 0 0 Z " fill="#34411D" transform="translate(198,632)"/>
<path d="M0 0 C0 0.66 0 1.32 0 2 C-0.66 2 -1.32 2 -2 2 C-1.34 3.65 -0.68 5.3 0 7 C1.32 7 2.64 7 4 7 C4.33 6.34 4.66 5.68 5 5 C5.99 5 6.98 5 8 5 C9.60842789 8.21685579 9.46778535 11.5111009 9 15 C6.77863437 19.36045847 4.56432971 22.13277421 0 24 C-2.79133004 24.51060915 -5.22014532 24.61336874 -8 24 C-11.42387455 21.24601395 -14.60652655 18.19815458 -15.40625 13.73046875 C-15.57180464 9.23979923 -15.59188311 5.8910984 -12.5625 2.375 C-8.74821476 -0.88132025 -4.76989677 -0.57238761 0 0 Z " fill="#384424" transform="translate(537,335)"/>
<path d="M0 0 C0 0.99 0 1.98 0 3 C-0.66 3 -1.32 3 -2 3 C-1.67 4.65 -1.34 6.3 -1 8 C2.60992379 7.34414811 2.60992379 7.34414811 6 6 C6.66 6.33 7.32 6.66 8 7 C8 10.3 8 13.6 8 17 C7.34 17 6.68 17 6 17 C5.7525 17.598125 5.505 18.19625 5.25 18.8125 C3.70462524 21.51690582 2.79352635 22.56742238 0 24 C-3.10689928 24.53527104 -5.89998133 24.60339649 -9 24 C-13.19975692 20.69380838 -15.78446122 17.61654085 -16.5 12.25 C-16.41721519 7.77134174 -14.49769417 5.51808633 -11.5078125 2.34765625 C-7.96655577 -0.81745663 -4.54233793 -0.07326351 0 0 Z " fill="#3A4626" transform="translate(454,346)"/>
<path d="M0 0 C0 0.66 0 1.32 0 2 C0.7425 2.226875 1.485 2.45375 2.25 2.6875 C5.58966387 4.28143048 7.0598925 5.8659802 9 9 C8.75 11.3125 8.75 11.3125 8 13 C7.34 11.68 6.68 10.36 6 9 C5.67 10.32 5.34 11.64 5 13 C4.67 12.34 4.34 11.68 4 11 C3.67 12.32 3.34 13.64 3 15 C-0.29164829 15.02895225 -3.58326399 15.0467823 -6.875 15.0625 C-7.81214844 15.07087891 -8.74929688 15.07925781 -9.71484375 15.08789062 C-11.05869141 15.09272461 -11.05869141 15.09272461 -12.4296875 15.09765625 C-13.25710449 15.10289307 -14.08452148 15.10812988 -14.93701172 15.11352539 C-17 15 -17 15 -19 14 C-19 12.35 -19 10.7 -19 9 C-19.99 9 -20.98 9 -22 9 C-20.79569298 5.74837104 -18.87750782 3.17636949 -16.1953125 0.97265625 C-11.22694712 -1.22863019 -5.31295474 -0.32751091 0 0 Z " fill="#4E5A39" transform="translate(515,735)"/>
<path d="M0 0 C2.31 0 4.62 0 7 0 C7 1.32 7 2.64 7 4 C7.825 3.34 8.65 2.68 9.5 2 C13.34492481 -0.61234126 16.45655064 -0.31334134 21 0 C21 1.98 21 3.96 21 6 C20.39671875 6.02578125 19.7934375 6.0515625 19.171875 6.078125 C18.37265625 6.13484375 17.5734375 6.1915625 16.75 6.25 C15.96109375 6.29640625 15.1721875 6.3428125 14.359375 6.390625 C11.19941161 7.20677448 10.05495514 8.48437826 8 11 C7.3636349 13.69237987 7.3636349 13.69237987 7.390625 16.640625 C7.35839844 17.71054687 7.32617188 18.78046875 7.29296875 19.8828125 C7.27878906 20.99398437 7.26460938 22.10515625 7.25 23.25 C7.22035156 24.37664063 7.19070313 25.50328125 7.16015625 26.6640625 C7.08951088 29.44278021 7.03678723 32.22066148 7 35 C4.69 35 2.38 35 0 35 C0 23.45 0 11.9 0 0 Z " fill="#4B573A" transform="translate(467,735)"/>
<path d="M0 0 C5.28 0 10.56 0 16 0 C16 0.66 16 1.32 16 2 C17.32 2.66 18.64 3.32 20 4 C20.10884119 5.41493551 20.18597617 6.83232943 20.25 8.25 C20.29640625 9.03890625 20.3428125 9.8278125 20.390625 10.640625 C20 13 20 13 18.5 15.28125 C14.99884387 17.68829484 11.82640705 17.43581444 7.75 17.25 C5.1925 17.1675 2.635 17.085 0 17 C0 11.39 0 5.78 0 0 Z " fill="#F5F6F4" transform="translate(264,728)"/>
<path d="M0 0 C0.33 0 0.66 0 1 0 C1 1.98 1 3.96 1 6 C-1.56893838 7.28446919 -3.76576337 7.32977144 -6.625 7.5625 C-7.62789063 7.64628906 -8.63078125 7.73007812 -9.6640625 7.81640625 C-10.43492187 7.87699219 -11.20578125 7.93757812 -12 8 C-10.16262173 10.27216848 -10.16262173 10.27216848 -7.3984375 10.1953125 C-6.40070313 10.17210937 -5.40296875 10.14890625 -4.375 10.125 C-3.37210937 10.10695313 -2.36921875 10.08890625 -1.3359375 10.0703125 C-0.17964844 10.03550781 -0.17964844 10.03550781 1 10 C0.77273233 13.93930635 0.580354 16.31082962 -2 19.375 C-5.95787867 21.51885095 -9.55420722 21.80628354 -14 22 C-14 22.99 -14 23.98 -14 25 C-11.36 25.33 -8.72 25.66 -6 26 C-6 26.33 -6 26.66 -6 27 C-14.96297185 27.62653784 -14.96297185 27.62653784 -19 25.1875 C-21.60789624 22.33511349 -22.9085631 20.53846177 -23.5625 16.6875 C-22.85602366 12.0561551 -21.3126811 10.92375048 -17.7265625 8.1640625 C-14.1255677 5.73624247 -11.19694406 5.7125328 -6.875 5.4375 C-5.59367187 5.35371094 -4.31234375 5.26992188 -2.9921875 5.18359375 C-2.00476563 5.12300781 -1.01734375 5.06242188 0 5 C0 3.35 0 1.7 0 0 Z " fill="#4E583A" transform="translate(451,743)"/>
<path d="M0 0 C3.96 0 7.92 0 12 0 C12 22.11 12 44.22 12 67 C8.04 67 4.08 67 0 67 C0 44.89 0 22.78 0 0 Z M2 3 C2 23.46 2 43.92 2 65 C4.64 65 7.28 65 10 65 C10 44.54 10 24.08 10 3 C7.36 3 4.72 3 2 3 Z " fill="#3D4A26" transform="translate(588,630)"/>
<path d="M0 0 C2.31 0 4.62 0 7 0 C7 13.86 7 27.72 7 42 C4.69 42 2.38 42 0 42 C0 28.14 0 14.28 0 0 Z " fill="#35421E" transform="translate(427,653)"/>
<path d="M0 0 C3.96 0 7.92 0 12 0 C12 15.84 12 31.68 12 48 C8.04 48 4.08 48 0 48 C0 32.16 0 16.32 0 0 Z M2 3 C2 16.86 2 30.72 2 45 C4.64 45 7.28 45 10 45 C9.505 24.21 9.505 24.21 9 3 C6.69 3 4.38 3 2 3 Z " fill="#434F2E" transform="translate(173,650)"/>
<path d="M0 0 C0.33 0 0.66 0 1 0 C1 5.61 1 11.22 1 17 C3.578125 16.896875 6.15625 16.79375 8.8125 16.6875 C10.02450073 16.65015747 10.02450073 16.65015747 11.26098633 16.61206055 C14.19459578 16.46079803 16.47309128 16.34290885 18.96875 14.71875 C20.19353644 12.67743927 20.49351774 11.17908363 20.6875 8.8125 C20.790625 7.554375 20.89375 6.29625 21 5 C21.33 5 21.66 5 22 5 C22.33 7.31 22.66 9.62 23 12 C23.66 11.67 24.32 11.34 25 11 C25.66 11.33 26.32 11.66 27 12 C27 8.7 27 5.4 27 2 C27.33 2 27.66 2 28 2 C28.05441656 3.89551022 28.09298035 5.7914792 28.125 7.6875 C28.14820313 8.74324219 28.17140625 9.79898438 28.1953125 10.88671875 C27.98596819 14.22366707 27.73657145 16.13892737 26 19 C20.54005178 23.1318527 16.25629288 23.52826675 9.5625 23.25 C5.3240625 23.12625 5.3240625 23.12625 1 23 C1 29.27 1 35.54 1 42 C-0.98 42 -2.96 42 -5 42 C-5 41.67 -5 41.34 -5 41 C-3.35 41 -1.7 41 0 41 C-0.33 35.72 -0.66 30.44 -1 25 C-1.66 25.33 -2.32 25.66 -3 26 C-3 19.73 -3 13.46 -3 7 C-2.67 7 -2.34 7 -2 7 C-1.67 9.64 -1.34 12.28 -1 15 C-0.67 10.05 -0.34 5.1 0 0 Z " fill="#4A5537" transform="translate(263,728)"/>
<path d="M0 0 C3.35178697 3.77344034 5.06039148 7.23672962 6.6875 12 C7.10386719 13.19625 7.52023437 14.3925 7.94921875 15.625 C9 19 9 19 10 24 C3.73 24 -2.54 24 -9 24 C-6.75483871 13.89677419 -6.75483871 13.89677419 -5 10.25 C-4.65324219 9.51265625 -4.30648438 8.7753125 -3.94921875 8.015625 C-3.63597656 7.35046875 -3.32273437 6.6853125 -3 6 C-2.608125 5.01 -2.21625 4.02 -1.8125 3 C-1 1 -1 1 0 0 Z " fill="#ECEDEA" transform="translate(330,650)"/>
<path d="M0 0 C3.63 0 7.26 0 11 0 C11 0.66 11 1.32 11 2 C8.03 2 5.06 2 2 2 C2 22.46 2 42.92 2 64 C4.64 64 7.28 64 10 64 C10 43.87 10 23.74 10 3 C10.33 3 10.66 3 11 3 C11 23.79 11 44.58 11 66 C7.37 66 3.74 66 0 66 C0 44.22 0 22.44 0 0 Z " fill="#303D18" transform="translate(611,631)"/>
<path d="M0 0 C0.99 0 1.98 0 3 0 C11.65029302 9.3072773 19.38381334 24.9065233 23 37 C22.67 37.99 22.34 38.98 22 40 C0 11.76666667 0 11.76666667 0 0 Z " fill="#FDF8E2" transform="translate(555,298)"/>
<path d="M0 0 C3.4375 2 3.4375 2 6 5 C6.48098021 7.94314081 6.1315687 10.24850136 5 13 C2.32235598 15.44813167 0.49618512 15.91899018 -3.0625 16.5 C-6 16 -6 16 -8.375 13.9375 C-10.40553614 10.26691544 -10.60190112 8.13807018 -10 4 C-7.26162753 -0.10755871 -4.80702167 -0.8652639 0 0 Z " fill="#374220" transform="translate(181,627)"/>
<path d="M0 0 C2.57423492 1.42753028 3.92507286 2.77686378 6 5 C6.6875 7.5 6.6875 7.5 6 10 C3.5625 12.75 3.5625 12.75 1 15 C0.67 15.33 0.34 15.66 0 16 C-2.8125 16.375 -2.8125 16.375 -6 16 C-9.16196359 13.25408425 -9.91691332 11.59199258 -10.5 7.4375 C-10 4 -10 4 -8.375 1.5625 C-5.22306429 -0.51114192 -3.71443562 -0.66859841 0 0 Z " fill="#374221" transform="translate(433,627)"/>
<path d="M0 0 C3.63 0 7.26 0 11 0 C10.67 1.65 10.34 3.3 10 5 C9.67 4.01 9.34 3.02 9 2 C6.69 2 4.38 2 2 2 C2 15.86 2 29.72 2 44 C4.31 44 6.62 44 9 44 C8.98952637 43.26885986 8.97905273 42.53771973 8.96826172 41.78442383 C8.92659711 38.46048441 8.90064044 35.13660005 8.875 31.8125 C8.85824219 30.66201172 8.84148437 29.51152344 8.82421875 28.32617188 C8.81777344 27.21435547 8.81132812 26.10253906 8.8046875 24.95703125 C8.79421387 23.93585205 8.78374023 22.91467285 8.77294922 21.86254883 C9.01000368 18.87387833 9.74382898 16.70576631 11 14 C12.15759801 17.47279404 12.02260483 19.98038824 11.87890625 23.63671875 C11.83056641 24.93544922 11.78222656 26.23417969 11.73242188 27.57226562 C11.67590048 28.94401533 11.61925831 30.31576007 11.5625 31.6875 C11.50925949 33.07094416 11.45651922 34.45440766 11.40429688 35.83789062 C11.27445883 39.22548325 11.13948625 42.61279314 11 46 C7.37 46 3.74 46 0 46 C0 30.82 0 15.64 0 0 Z " fill="#2F3D18" transform="translate(448,651)"/>
<path d="M0 0 C6.93 0 13.86 0 21 0 C21 0.33 21 0.66 21 1 C14.73 1 8.46 1 2 1 C2.33 10.57 2.66 20.14 3 30 C3.66 29.67 4.32 29.34 5 29 C5 34.61 5 40.22 5 46 C3.35 46 1.7 46 0 46 C0 30.82 0 15.64 0 0 Z " fill="#2B3716" transform="translate(258,723)"/>
<path d="M0 0 C3.375 1.125 3.375 1.125 6 3 C6.66 4.98 7.32 6.96 8 9 C0.74 9 -6.52 9 -14 9 C-13 4 -13 4 -10.9375 1.6875 C-7.20879114 -0.45452424 -4.15385104 -0.65843823 0 0 Z " fill="#F2F3F0" transform="translate(657,660)"/>
<path d="M0 0 C-0.2283022 3.95723818 -0.45022518 6.32996194 -3 9.4375 C-6.97690673 11.50880559 -10.58417561 11.74609214 -15 11 C-17 9 -17 9 -17.5 6.625 C-17 4 -17 4 -14.6875 1.6875 C-10.19948103 -1.00531138 -5.04253758 -0.32300952 0 0 Z " fill="#E8E9E6" transform="translate(452,753)"/>
<path d="M0 0 C0.99 0 1.98 0 3 0 C3 0.66 3 1.32 3 2 C3.99 2.33 4.98 2.66 6 3 C6 3.66 6 4.32 6 5 C4.35546875 6.25390625 4.35546875 6.25390625 2.1875 7.5625 C1.12595703 8.21412109 1.12595703 8.21412109 0.04296875 8.87890625 C-3.88853124 11.03634506 -7.14512738 11.16282194 -11.5625 11.1875 C-12.71878906 11.20167969 -13.87507813 11.21585938 -15.06640625 11.23046875 C-18 11 -18 11 -20 9 C-18.68 8.67 -17.36 8.34 -16 8 C-18.475 7.01 -18.475 7.01 -21 6 C-21 5.67 -21 5.34 -21 5 C-20.05898438 4.96261719 -19.11796875 4.92523437 -18.1484375 4.88671875 C-16.90320313 4.82097656 -15.65796875 4.75523437 -14.375 4.6875 C-12.53035156 4.60048828 -12.53035156 4.60048828 -10.6484375 4.51171875 C-6.67512741 3.95443436 -2.92414507 2.92414507 0 0 Z " fill="#2F3B18" transform="translate(417,758)"/>
<path d="M0 0 C0.66 0.33 1.32 0.66 2 1 C2 12.22 2 23.44 2 35 C-1.63 35 -5.26 35 -9 35 C-9 24.44 -9 13.88 -9 3 C-7 5 -7 5 -6.77294922 7.79736328 C-6.78342285 8.95993652 -6.79389648 10.12250977 -6.8046875 11.3203125 C-6.81113281 12.57714844 -6.81757813 13.83398438 -6.82421875 15.12890625 C-6.84097656 16.44761719 -6.85773438 17.76632812 -6.875 19.125 C-6.88503017 20.46483721 -6.89415596 21.80468152 -6.90234375 23.14453125 C-6.92597925 26.42986573 -6.95892766 29.71484465 -7 33 C-4.69 33 -2.38 33 0 33 C0 22.11 0 11.22 0 0 Z " fill="#2F3E19" transform="translate(411,662)"/>
<path d="M0 0 C3.4375 1.6875 3.4375 1.6875 6 4 C6 5.65 6 7.3 6 9 C-0.27 9 -6.54 9 -13 9 C-12 4 -12 4 -9.875 1.6875 C-6.20506413 -0.46659279 -4.20089295 -0.58959901 0 0 Z " fill="#F9F9F8" transform="translate(511,740)"/>
<path d="M0 0 C2.375 1.25 2.375 1.25 4 3 C4.33 4.65 4.66 6.3 5 8 C-1.27 8 -7.54 8 -14 8 C-12.83636364 2.18181818 -12.83636364 2.18181818 -10 0 C-6.2195649 -1.26014503 -3.87795389 -0.81641135 0 0 Z " fill="#F3F3F1" transform="translate(317,741)"/>
<path d="M0 0 C3.3 0 6.6 0 10 0 C9.67 1.32 9.34 2.64 9 4 C9 3.01 9 2.02 9 1 C6.36 1 3.72 1 1 1 C1 14.86 1 28.72 1 43 C3.64 43 6.28 43 9 43 C8.98952637 42.22809326 8.97905273 41.45618652 8.96826172 40.66088867 C8.92673546 37.16979212 8.90068443 33.67874751 8.875 30.1875 C8.85824219 28.97255859 8.84148437 27.75761719 8.82421875 26.50585938 C8.81777344 25.34248047 8.81132812 24.17910156 8.8046875 22.98046875 C8.79421387 21.90692139 8.78374023 20.83337402 8.77294922 19.72729492 C9 17 9 17 11 14 C11 24.23 11 34.46 11 45 C7.37 45 3.74 45 0 45 C0 30.15 0 15.3 0 0 Z " fill="#2C3A17" transform="translate(370,652)"/>
<path d="M0 0 C2.7666501 2.01890683 3.84010853 3.18055623 4.5 6.5625 C4 9 4 9 2.3125 10.8125 C-0.42827048 12.21992268 -1.95973624 12.46773289 -5 12 C-6.8125 10.875 -6.8125 10.875 -8 9 C-8.39769128 5.81846974 -8.55198782 3.87155972 -6.8125 1.125 C-4.30201593 -0.43323149 -2.90697947 -0.49631357 0 0 Z " fill="#F1F6E4" transform="translate(516,389)"/>
<path d="M0 0 C1.11503906 -0.00773438 2.23007812 -0.01546875 3.37890625 -0.0234375 C6.66595597 0.40476055 8.03605171 1.15556857 10.4375 3.375 C9.65375 3.684375 8.87 3.99375 8.0625 4.3125 C5.51419872 5.30375038 5.51419872 5.30375038 3.4375 6.375 C1.10416667 6.375 -1.22916667 6.375 -3.5625 6.375 C-5.87286915 6.80354995 -5.87286915 6.80354995 -7.5625 7.375 C-7.5625 8.035 -7.5625 8.695 -7.5625 9.375 C-9.73124252 8.86896008 -11.56217627 8.37516187 -13.5625 7.375 C-11.16645374 1.05815077 -6.30205988 -0.04381502 0 0 Z " fill="#4A5435" transform="translate(443.5625,734.625)"/>
<path d="M0 0 C0.33 0 0.66 0 1 0 C1.33 3.63 1.66 7.26 2 11 C2.66 9.35 3.32 7.7 4 6 C5.01044795 9.03134384 5.05032949 10.74395943 4.87890625 13.88671875 C4.83056641 14.82451172 4.78222656 15.76230469 4.73242188 16.72851562 C4.67634766 17.70498047 4.62027344 18.68144531 4.5625 19.6875 C4.51029297 20.67556641 4.45808594 21.66363281 4.40429688 22.68164062 C4.27464694 25.12141676 4.13968258 27.56078105 4 30 C2.35 30 0.7 30 -1 30 C-1.02465746 25.8882744 -1.04283959 21.77657722 -1.05493164 17.66479492 C-1.0599708 16.26504772 -1.06680216 14.8653058 -1.07543945 13.46557617 C-1.0875232 11.45754223 -1.09269807 9.44947043 -1.09765625 7.44140625 C-1.10289307 6.23170166 -1.10812988 5.02199707 -1.11352539 3.77563477 C-1 1 -1 1 0 0 Z " fill="#24300E" transform="translate(469,739)"/>
<path d="M0 0 C2 1 2 1 3.125 3.25 C4 6 4 6 4 11 C-4.58 11 -13.16 11 -22 11 C-19 8 -19 8 -17.09887695 7.65942383 C-16.40238037 7.67513428 -15.70588379 7.69084473 -14.98828125 7.70703125 C-14.23095703 7.71669922 -13.47363281 7.72636719 -12.69335938 7.73632812 C-11.51483398 7.7740332 -11.51483398 7.7740332 -10.3125 7.8125 C-9.11657227 7.83280273 -9.11657227 7.83280273 -7.89648438 7.85351562 C-5.93070033 7.88882911 -3.96526418 7.94263553 -2 8 C-2 6.02 -2 4.04 -2 2 C-1.34 2.66 -0.68 3.32 0 4 C0 2.68 0 1.36 0 0 Z " fill="#2E3A16" transform="translate(520,742)"/>
<path d="M0 0 C0.66 0.33 1.32 0.66 2 1 C2.33 4.3 2.66 7.6 3 11 C-5.25 11 -13.5 11 -22 11 C-22 10.01 -22 9.02 -22 8 C-15.4 8 -8.8 8 -2 8 C-2 6.02 -2 4.04 -2 2 C-1.34 2 -0.68 2 0 2 C0 1.34 0 0.68 0 0 Z " fill="#2D3716" transform="translate(324,742)"/>
<path d="M0 0 C0.33 0 0.66 0 1 0 C1.02505615 0.63091553 1.0501123 1.26183105 1.07592773 1.91186523 C1.19154137 4.75396825 1.31442316 7.59571083 1.4375 10.4375 C1.47681641 11.43072266 1.51613281 12.42394531 1.55664062 13.44726562 C1.59853516 14.39150391 1.64042969 15.33574219 1.68359375 16.30859375 C1.72025146 17.18314209 1.75690918 18.05769043 1.79467773 18.95874023 C1.78181066 20.9927402 1.78181066 20.9927402 3 22 C5.32817964 22.36760731 7.6618385 22.70241581 10 23 C10.042721 24.66611905 10.04063832 26.33382885 10 28 C9 29 9 29 5.75 29.25 C1.8163518 28.98775679 0.0541962 28.4253911 -3 26 C-3.33 25.01 -3.66 24.02 -4 23 C-3.01 23 -2.02 23 -1 23 C-0.67 15.41 -0.34 7.82 0 0 Z " fill="#586245" transform="translate(344,741)"/>
<path d="M0 0 C0.66 1.65 1.32 3.3 2 5 C-3.18950303 9.59071422 -9.40421539 9.32978923 -16 9 C-16.66 8.34 -17.32 7.68 -18 7 C-17.01 6.67 -16.02 6.34 -15 6 C-15 5.34 -15 4.68 -15 4 C-14.31292969 3.87882813 -13.62585938 3.75765625 -12.91796875 3.6328125 C-11.56638672 3.38144531 -11.56638672 3.38144531 -10.1875 3.125 C-9.29417969 2.96257813 -8.40085937 2.80015625 -7.48046875 2.6328125 C-4.62254823 1.90370522 -2.93854986 0 0 0 Z " fill="#455030" transform="translate(520,760)"/>
<path d="M0 0 C1.32 0.33 2.64 0.66 4 1 C4.02894547 4.45831586 4.04678 7.91660072 4.0625 11.375 C4.07087891 12.35984375 4.07925781 13.3446875 4.08789062 14.359375 C4.09111328 15.30039062 4.09433594 16.24140625 4.09765625 17.2109375 C4.10289307 18.08024902 4.10812988 18.94956055 4.11352539 19.84521484 C4 22 4 22 3 24 C2.01 24 1.02 24 0 24 C0 16.08 0 8.16 0 0 Z " fill="#2D3A15" transform="translate(340,740)"/>
<path d="M0 0 C10.73575989 -0.68769992 10.73575989 -0.68769992 14.6875 1.75 C15.450625 2.4925 16.21375 3.235 17 4 C17 8 17 8 15.5 9.75 C15.005 10.1625 14.51 10.575 14 11 C13.38125 10.21625 12.7625 9.4325 12.125 8.625 C8.52998931 4.94662674 3.90939462 4.63869794 -1 4 C-0.34 3.67 0.32 3.34 1 3 C0.67 2.01 0.34 1.02 0 0 Z " fill="#303B1A" transform="translate(308,736)"/>
<path d="M0 0 C2.25 0.0625 2.25 0.0625 5 1 C6.65316834 3.17994063 7.78022779 5.56045558 9 8 C9.99 9.485 9.99 9.485 11 11 C10.34 12.32 9.68 13.64 9 15 C4.79236776 13.4972742 3.1972242 10.76667005 1 7 C1 6.34 1 5.68 1 5 C0.34 5 -0.32 5 -1 5 C-0.67 3.35 -0.34 1.7 0 0 Z " fill="#3B462A" transform="translate(241,396)"/>
<path d="M0 0 C0.8971875 0.309375 0.8971875 0.309375 1.8125 0.625 C1.8125 1.945 1.8125 3.265 1.8125 4.625 C-1.96638294 8.03818459 -5.57081415 7.89571844 -10.39453125 7.73046875 C-10.98621094 7.69566406 -11.57789063 7.66085937 -12.1875 7.625 C-11.8575 6.965 -11.5275 6.305 -11.1875 5.625 C-13.1675 4.965 -15.1475 4.305 -17.1875 3.625 C-17.1875 3.295 -17.1875 2.965 -17.1875 2.625 C-15.94033203 2.55152344 -15.94033203 2.55152344 -14.66796875 2.4765625 C-13.58128906 2.40179687 -12.49460937 2.32703125 -11.375 2.25 C-10.29605469 2.18039062 -9.21710938 2.11078125 -8.10546875 2.0390625 C-4.79723813 1.56962147 -3.23648403 -0.55482583 0 0 Z " fill="#394525" transform="translate(323.1875,761.375)"/>
<path d="M0 0 C0.33 0 0.66 0 1 0 C1.05441656 1.89551022 1.09298035 3.7914792 1.125 5.6875 C1.14820313 6.74324219 1.17140625 7.79898438 1.1953125 8.88671875 C0.99623827 12.05996204 0.44836647 14.18373186 -1 17 C-3.125 18.3125 -3.125 18.3125 -5 19 C-5 18.34 -5 17.68 -5 17 C-6.65 17.33 -8.3 17.66 -10 18 C-10 15 -10 15 -8.5625 13.3125 C-6.29490495 9.95645932 -6.33444364 7.01332372 -6 3 C-5.67 3 -5.34 3 -5 3 C-4.67 5.31 -4.34 7.62 -4 10 C-3.34 9.67 -2.68 9.34 -2 9 C-1.34 9.33 -0.68 9.66 0 10 C0 6.7 0 3.4 0 0 Z " fill="#4F5A3C" transform="translate(290,730)"/>
<path d="M0 0 C1.32 0 2.64 0 4 0 C4.3125 2.25 4.3125 2.25 4 5 C0.95067812 8.13644536 -1.62685581 9.66360429 -6 10 C-6.60199219 9.84015625 -7.20398438 9.6803125 -7.82421875 9.515625 C-10.36321354 8.91392426 -12.64374092 8.90320712 -15.25 8.9375 C-16.58804687 8.95103516 -16.58804687 8.95103516 -17.953125 8.96484375 C-18.62859375 8.97644531 -19.3040625 8.98804688 -20 9 C-20 8.67 -20 8.34 -20 8 C-18.80503906 7.85304688 -18.80503906 7.85304688 -17.5859375 7.703125 C-10.00725223 6.63362684 -5.46345909 5.46345909 0 0 Z " fill="#565F45" transform="translate(307,407)"/>
<path d="M0 0 C1.4606285 2.64738916 2 3.89448334 2 7 C2.99 7.33 3.98 7.66 5 8 C4.67 8.33 4.34 8.66 4 9 C11.92 9.33 19.84 9.66 28 10 C28 10.33 28 10.66 28 11 C19.42 11 10.84 11 2 11 C1.67 11.99 1.34 12.98 1 14 C1 13.34 1 12.68 1 12 C0.34 12 -0.32 12 -1 12 C-1.33 12.66 -1.66 13.32 -2 14 C-3.32854177 8.0819503 -2.66464729 5.22270869 0 0 Z " fill="#3D4926" transform="translate(496,743)"/>
<path d="M0 0 C0.33 0 0.66 0 1 0 C1.0501123 1.22630127 1.10022461 2.45260254 1.15185547 3.71606445 C1.34007448 8.26190637 1.54049732 12.80714205 1.74462891 17.35229492 C1.83130007 19.32024971 1.9146524 21.28835357 1.99462891 23.2565918 C2.11010289 26.0842788 2.237468 28.91121642 2.3671875 31.73828125 C2.40061249 32.61962234 2.43403748 33.50096344 2.46847534 34.40901184 C2.50836578 35.22963608 2.54825623 36.05026031 2.58935547 36.89575195 C2.62044403 37.61745071 2.65153259 38.33914948 2.68356323 39.0827179 C2.91820482 41.32342812 2.91820482 41.32342812 5 44 C5.1953125 47.13671875 5.1953125 47.13671875 5.125 50.6875 C5.10695313 51.86699219 5.08890625 53.04648437 5.0703125 54.26171875 C5.03550781 55.61716797 5.03550781 55.61716797 5 57 C4.67 57 4.34 57 4 57 C3.87625 55.989375 3.7525 54.97875 3.625 53.9375 C3.11678468 50.09276456 3.11678468 50.09276456 2 46.875 C-1.07365804 36.54460744 -0.1309541 24.84438268 -0.0625 14.1875 C-0.05746684 12.80143394 -0.0529072 11.41536607 -0.04882812 10.02929688 C-0.03717953 6.68615025 -0.02082429 3.34309989 0 0 Z " fill="#C3BA01" transform="translate(388,368)"/>
<path d="M0 0 C0.33 0 0.66 0 1 0 C1.14285714 8.57142857 1.14285714 8.57142857 0 12 C0.99 11.67 1.98 11.34 3 11 C0.71143755 18.6805543 -1.63553669 26.34249954 -4 34 C-4.33 34 -4.66 34 -5 34 C-5.13345889 29.20761248 -4.72730184 25.0352266 -3.625 20.375 C-2.09547866 13.61901 -0.96815292 6.8568007 0 0 Z " fill="#E7F0C2" transform="translate(398,300)"/>
<path d="M0 0 C3.09998746 0.33214151 4.0545012 1.0545012 6.3125 3.3125 C8 6 8 6 7.75 8.3125 C7.5025 8.869375 7.255 9.42625 7 10 C6.34 8.68 5.68 7.36 5 6 C4.67 7.32 4.34 8.64 4 10 C3.67 9.34 3.34 8.68 3 8 C2.67 9.32 2.34 10.64 2 12 C-4.6 12 -11.2 12 -18 12 C-18 11.67 -18 11.34 -18 11 C-11.73 11 -5.46 11 1 11 C1 9.35 1 7.7 1 6 C-0.32 5.34 -1.64 4.68 -3 4 C-2.01 3.67 -1.02 3.34 0 3 C0 2.01 0 1.02 0 0 Z " fill="#626B51" transform="translate(516,738)"/>
<path d="M0 0 C-0.33 0.66 -0.66 1.32 -1 2 C0.32 2 1.64 2 3 2 C3 2.66 3 3.32 3 4 C0.65147472 5.17426264 -0.73774065 5.11508173 -3.3515625 5.09765625 C-4.20234375 5.09443359 -5.053125 5.09121094 -5.9296875 5.08789062 C-6.81914062 5.07951172 -7.70859375 5.07113281 -8.625 5.0625 C-9.5221875 5.05798828 -10.419375 5.05347656 -11.34375 5.04882812 C-13.56256648 5.03702591 -15.78125018 5.02056155 -18 5 C-18 3.68 -18 2.36 -18 1 C-15.93769732 0.8309093 -13.8751477 0.66482867 -11.8125 0.5 C-10.08966797 0.36078125 -10.08966797 0.36078125 -8.33203125 0.21875 C-5.53927574 0.0354038 -2.79680188 -0.04213637 0 0 Z " fill="#2A3614" transform="translate(282,745)"/>
<path d="M0 0 C2.12472576 -0.05386629 4.24983652 -0.09273071 6.375 -0.125 C7.55835938 -0.14820313 8.74171875 -0.17140625 9.9609375 -0.1953125 C13 0 13 0 15 2 C15 3.32 15 4.64 15 6 C12.89551062 5.85890014 10.7914123 5.71195825 8.6875 5.5625 C7.51574219 5.48128906 6.34398437 5.40007813 5.13671875 5.31640625 C2 5 2 5 -1 4 C-0.67 2.68 -0.34 1.36 0 0 Z " fill="#35401D" transform="translate(502,736)"/>
<path d="M0 0 C0 0.33 0 0.66 0 1 C-4.455 1.495 -4.455 1.495 -9 2 C-8.67 3.32 -8.34 4.64 -8 6 C-12.75 8.875 -12.75 8.875 -15 10 C-15 8.68 -15 7.36 -15 6 C-16.65 6.66 -18.3 7.32 -20 8 C-18.82687716 4.71525604 -17.00660655 2.63422819 -14.0625 0.75 C-9.60193394 -0.87202402 -4.67077409 -0.27208393 0 0 Z " fill="#4D573C" transform="translate(318,735)"/>
<path d="M0 0 C5.94 0 11.88 0 18 0 C18 0.99 18 1.98 18 3 C14.85030499 4.84586777 12.51115326 5.27170838 8.875 5.25 C7.57175781 5.25773437 7.57175781 5.25773437 6.2421875 5.265625 C4 5 4 5 2 3 C1.34 2.01 0.68 1.02 0 0 Z " fill="#2D3817" transform="translate(284,415)"/>
<path d="M0 0 C1.1725131 0.95117134 2.33787015 1.91117009 3.5 2.875 C4.47453125 3.67550781 4.47453125 3.67550781 5.46875 4.4921875 C5.9740625 4.98976563 6.479375 5.48734375 7 6 C7 6.66 7 7.32 7 8 C7.66 8.66 8.32 9.32 9 10 C9 10.33 9 10.66 9 11 C11.64 11.33 14.28 11.66 17 12 C17 12.33 17 12.66 17 13 C11.90363007 13.36258758 8.09957107 13.54014017 3.4375 11.25 C0.19753086 8.25925926 0.19753086 8.25925926 0 5 C-0.03786901 3.33376361 -0.04627845 1.66602403 0 0 Z " fill="#4D563B" transform="translate(279,408)"/>
<path d="M0 0 C0.66 0.33 1.32 0.66 2 1 C-15.52671756 20.26335878 -15.52671756 20.26335878 -21 23 C-19.3773505 19.09258539 -16.72133139 16.24144162 -13.875 13.1875 C-13.14446411 12.39617676 -13.14446411 12.39617676 -12.39916992 11.58886719 C-8.51185481 7.43067014 -4.41766531 3.59489097 0 0 Z " fill="#85B327" transform="translate(211,260)"/>
<path d="M0 0 C0.66 0.33 1.32 0.66 2 1 C-4.93 7.93 -11.86 14.86 -19 22 C-19.66 21.67 -20.32 21.34 -21 21 C-14.47429312 13.40315437 -7.47007318 6.64849153 0 0 Z " fill="#FDF6D1" transform="translate(202,245)"/>
<path d="M0 0 C1.9996441 0.03772913 4.00054061 0.04649906 6 0 C6 0.33 6 0.66 6 1 C0.555 2.485 0.555 2.485 -5 4 C-5 4.66 -5 5.32 -5 6 C-7.16874252 5.49396008 -8.99967627 5.00016187 -11 4 C-9.54643338 0.24495289 -9.54643338 0.24495289 -7.1875 -0.8125 C-4.59755375 -1.03449539 -2.53888735 -0.54404729 0 0 Z " fill="#333E1B" transform="translate(441,738)"/>
<path d="M0 0 C0 0.33 0 0.66 0 1 C-1.98 1.66 -3.96 2.32 -6 3 C-6.2784375 4.8871875 -6.2784375 4.8871875 -6.5625 6.8125 C-6.66691406 7.52019531 -6.77132813 8.22789062 -6.87890625 8.95703125 C-7.13904799 11.2025342 -7.13904799 11.2025342 -6 14 C-5.21625 13.79375 -4.4325 13.5875 -3.625 13.375 C-2.325625 13.189375 -2.325625 13.189375 -1 13 C-0.34 13.66 0.32 14.32 1 15 C0 16 0 16 -2.8125 16.375 C-6 16 -6 16 -8.375 13.9375 C-10.40553614 10.26691544 -10.60190112 8.13807018 -10 4 C-7.21083461 -0.18374808 -4.85662887 -0.44151172 0 0 Z " fill="#4D573C" transform="translate(433,627)"/>
<path d="M0 0 C0.33 0 0.66 0 1 0 C1.38063221 2.3260857 1.71269945 4.66055264 2 7 C1.67 7.33 1.34 7.66 1 8 C1.00595463 9.50056678 1.0556031 11.00102696 1.125 12.5 C1.20171957 17.82433799 -0.01180298 22.10051449 -2 27 C-2.33 27 -2.66 27 -3 27 C-3.15366997 20.60348741 -2.64846374 14.72301098 -1.5 8.4375 C-1.35691406 7.61958984 -1.21382813 6.80167969 -1.06640625 5.95898438 C-0.71771688 3.97145496 -0.35983915 1.98554104 0 0 Z " fill="#8FBD39" transform="translate(381,338)"/>
<path d="M0 0 C1.16015625 0.02513672 1.16015625 0.02513672 2.34375 0.05078125 C3.1171875 0.05464844 3.890625 0.05851562 4.6875 0.0625 C6.84375 0.36328125 6.84375 0.36328125 9.84375 2.36328125 C9.84375 3.02328125 9.84375 3.68328125 9.84375 4.36328125 C8.52375 4.36328125 7.20375 4.36328125 5.84375 4.36328125 C5.84375 6.01328125 5.84375 7.66328125 5.84375 9.36328125 C5.51375 9.36328125 5.18375 9.36328125 4.84375 9.36328125 C4.84375 7.38328125 4.84375 5.40328125 4.84375 3.36328125 C1.54375 3.36328125 -1.75625 3.36328125 -5.15625 3.36328125 C-2.15625 0.36328125 -2.15625 0.36328125 0 0 Z " fill="#5E684D" transform="translate(330.15625,348.63671875)"/>
<path d="M0 0 C0.87462891 0.00902344 1.74925781 0.01804687 2.65039062 0.02734375 C4.78788064 0.0507043 6.92522786 0.08656753 9.0625 0.125 C9.0625 0.455 9.0625 0.785 9.0625 1.125 C5.4325 1.125 1.8025 1.125 -1.9375 1.125 C-1.9375 1.785 -1.9375 2.445 -1.9375 3.125 C-3.00677734 3.10759766 -3.00677734 3.10759766 -4.09765625 3.08984375 C-9.50075366 3.03893974 -14.61578475 3.17891729 -19.9375 4.125 C-13.57642439 -0.11571707 -7.40706547 -0.14645148 0 0 Z " fill="#8BBC39" transform="translate(503.9375,380.875)"/>
<path d="M0 0 C0.99 0 1.98 0 3 0 C4.92471317 5.33835539 6.39891424 10.34979382 7 16 C6.01 16 5.02 16 4 16 C2 14 2 14 1.8046875 10.9609375 C1.82789063 9.77757812 1.85109375 8.59421875 1.875 7.375 C1.89304687 6.18648438 1.91109375 4.99796875 1.9296875 3.7734375 C1.95289063 2.85820312 1.97609375 1.94296875 2 1 C1.34 0.67 0.68 0.34 0 0 Z " fill="#2D3B19" transform="translate(273,398)"/>
<path d="M0 0 C3.3 0.33 6.6 0.66 10 1 C10 2.32 10 3.64 10 5 C8.5629191 5.05422947 7.12524538 5.09289723 5.6875 5.125 C4.88699219 5.14820313 4.08648437 5.17140625 3.26171875 5.1953125 C1 5 1 5 -2 3 C-1.01 2.67 -0.02 2.34 1 2 C0.67 1.34 0.34 0.68 0 0 Z " fill="#293314" transform="translate(436,764)"/>
<path d="M0 0 C0.515625 0.53625 1.03125 1.0725 1.5625 1.625 C0.75 4.0625 0.75 4.0625 -0.4375 6.625 C-1.4275 6.955 -2.4175 7.285 -3.4375 7.625 C-3.80875 6.7278125 -3.80875 6.7278125 -4.1875 5.8125 C-5.60120012 3.33852479 -7.08805383 2.19129745 -9.4375 0.625 C-3.0375 -1.71346154 -3.0375 -1.71346154 0 0 Z " fill="#465331" transform="translate(324.4375,739.375)"/>
<path d="M0 0 C2.29109597 -0.08075665 4.58299267 -0.13907731 6.875 -0.1875 C8.78925781 -0.23970703 8.78925781 -0.23970703 10.7421875 -0.29296875 C11.81726563 -0.19628906 12.89234375 -0.09960938 14 0 C16 3 16 3 15.625 5.1875 C15.41875 5.785625 15.2125 6.38375 15 7 C14.34 5.68 13.68 4.36 13 3 C9.37 3 5.74 3 2 3 C1.67 3.66 1.34 4.32 1 5 C0.67 3.35 0.34 1.7 0 0 Z " fill="#46502F" transform="translate(103,633)"/>
<path d="M0 0 C0.66 0.33 1.32 0.66 2 1 C-0.90449181 4.33478689 -2.63192397 5.46012543 -7 6 C-9.27401002 5.9173572 -11.54633382 5.76851511 -13.8125 5.5625 C-14.97394531 5.46066406 -16.13539063 5.35882813 -17.33203125 5.25390625 C-18.21246094 5.17011719 -19.09289062 5.08632813 -20 5 C-20 4.67 -20 4.34 -20 4 C-18.83984375 3.94392578 -18.83984375 3.94392578 -17.65625 3.88671875 C-11.13294447 3.47497546 -6.02925854 2.45636459 0 0 Z " fill="#576247" transform="translate(546,448)"/>
<path d="M0 0 C0.66 0.33 1.32 0.66 2 1 C-3.28 6.28 -8.56 11.56 -14 17 C-14.66 16.67 -15.32 16.34 -16 16 C-11.03093773 10.1719243 -5.90436923 4.8836671 0 0 Z " fill="#E7F0D2" transform="translate(221,266)"/>
<path d="M0 0 C0 0.33 0 0.66 0 1 C-0.59014893 0.99476318 -1.18029785 0.98952637 -1.78833008 0.98413086 C-4.46304255 0.96333953 -7.13773801 0.95033299 -9.8125 0.9375 C-11.2056543 0.92493164 -11.2056543 0.92493164 -12.62695312 0.91210938 C-13.51962891 0.90888672 -14.41230469 0.90566406 -15.33203125 0.90234375 C-16.15421143 0.89710693 -16.9763916 0.89187012 -17.82348633 0.88647461 C-20.18172596 0.91258476 -20.18172596 0.91258476 -23 2 C-22.67 1.01 -22.34 0.02 -22 -1 C-15.68623007 -4.15688496 -6.56059249 -1.37343245 0 0 Z " fill="#FDD539" transform="translate(282,370)"/>
<path d="M0 0 C0 0.99 0 1.98 0 3 C-2.88211302 3.96070434 -4.69850044 4.10581883 -7.6875 4.0625 C-8.89986328 4.04896484 -8.89986328 4.04896484 -10.13671875 4.03515625 C-11.05904297 4.01775391 -11.05904297 4.01775391 -12 4 C-9.08799649 -0.36800527 -5.03924577 -1.93817145 0 0 Z " fill="#2A3415" transform="translate(267,409)"/>
<path d="M0 0 C1.11375 0.556875 1.11375 0.556875 2.25 1.125 C1.59 2.445 0.93 3.765 0.25 5.125 C-0.41 5.125 -1.07 5.125 -1.75 5.125 C-2.08 4.465 -2.41 3.805 -2.75 3.125 C-3.90628906 3.15980469 -3.90628906 3.15980469 -5.0859375 3.1953125 C-6.08882813 3.21335937 -7.09171875 3.23140625 -8.125 3.25 C-9.12273437 3.27320313 -10.12046875 3.29640625 -11.1484375 3.3203125 C-13.75 3.125 -13.75 3.125 -15.75 1.125 C-15.14671875 1.14820313 -14.5434375 1.17140625 -13.921875 1.1953125 C-13.12265625 1.21335937 -12.3234375 1.23140625 -11.5 1.25 C-10.31664062 1.28480469 -10.31664062 1.28480469 -9.109375 1.3203125 C-6.70829735 1.26879169 -6.70829735 1.26879169 -4.625 0.0625 C-2.75 -0.875 -2.75 -0.875 0 0 Z " fill="#677058" transform="translate(268.75,405.875)"/>
<path d="M0 0 C0 0.66 0 1.32 0 2 C0.66 2.33 1.32 2.66 2 3 C-0.22890995 4.11445498 -1.53055106 4.16480286 -4 4.1875 C-5.051875 4.20876953 -5.051875 4.20876953 -6.125 4.23046875 C-8 4 -8 4 -10 2 C-6.3558226 -0.4294516 -4.28758728 -0.16179575 0 0 Z " fill="#2E3916" transform="translate(512,765)"/>
<path d="M0 0 C0.66 0.33 1.32 0.66 2 1 C-2.62 5.62 -7.24 10.24 -12 15 C-12 10.09687565 -8.29800369 7.38658643 -5 4 C-3.37458956 2.61667196 -1.72614587 1.25537882 0 0 Z " fill="#FDD431" transform="translate(244,87)"/>
<path d="M0 0 C2.64 0 5.28 0 8 0 C8 1.32 8 2.64 8 4 C5.03 4 2.06 4 -1 4 C-0.67 2.68 -0.34 1.36 0 0 Z " fill="#26310E" transform="translate(345,736)"/>
<path d="M0 0 C1.89492188 0.01353516 1.89492188 0.01353516 3.828125 0.02734375 C4.79234375 0.03894531 5.7565625 0.05054688 6.75 0.0625 C6.75 0.3925 6.75 0.7225 6.75 1.0625 C3.45 1.0625 0.15 1.0625 -3.25 1.0625 C-3.25 1.7225 -3.25 2.3825 -3.25 3.0625 C-6.55 3.0625 -9.85 3.0625 -13.25 3.0625 C-9.46545136 -0.72204864 -5.14534429 -0.04764208 0 0 Z " fill="#636D53" transform="translate(406.25,720.9375)"/>
<path d="M0 0 C3.16115776 1.36983503 3.9927092 1.9890638 6 5 C4.88625 4.9071875 4.88625 4.9071875 3.75 4.8125 C0.54616994 5.03094296 -0.64031256 5.90250005 -3 8 C-3.66 7.67 -4.32 7.34 -5 7 C-3.35 4.69 -1.7 2.38 0 0 Z " fill="#E3B904" transform="translate(504,449)"/>
<path d="M0 0 C2.31 0 4.62 0 7 0 C7.66 1.65 8.32 3.3 9 5 C4.05 4.67 -0.9 4.34 -6 4 C-6 3.67 -6 3.34 -6 3 C-1.545 2.505 -1.545 2.505 3 2 C2.01 1.34 1.02 0.68 0 0 Z " fill="#4C5638" transform="translate(406,724)"/>
<path d="M0 0 C4.95 0 9.9 0 15 0 C17 4 17 4 17 8 C16.34 8 15.68 8 15 8 C14.67 5.69 14.34 3.38 14 1 C9.38 1 4.76 1 0 1 C0 0.67 0 0.34 0 0 Z " fill="#747C63" transform="translate(323,632)"/>
<path d="M0 0 C1.65 0.33 3.3 0.66 5 1 C5.66 2.98 6.32 4.96 7 7 C6.05125 6.67 5.1025 6.34 4.125 6 C1.22937548 4.89840809 1.22937548 4.89840809 -1 5 C-0.67 3.35 -0.34 1.7 0 0 Z " fill="#49553A" transform="translate(241,396)"/>
<path d="M0 0 C0 0.66 0 1.32 0 2 C-4.95 2 -9.9 2 -15 2 C-11.26564283 -1.73435717 -4.73684137 -2.36842068 0 0 Z " fill="#85B836" transform="translate(249,245)"/>
<path d="M0 0 C2.375 -0.125 2.375 -0.125 5 0 C7 2 7 2 7.1953125 4.6015625 C7.17210937 5.59929687 7.14890625 6.59703125 7.125 7.625 C7.10695313 8.62789063 7.08890625 9.63078125 7.0703125 10.6640625 C7.03550781 11.82035156 7.03550781 11.82035156 7 13 C6.67 13 6.34 13 6 13 C5.34 9.7 4.68 6.4 4 3 C2.35 2.67 0.7 2.34 -1 2 C-0.67 1.34 -0.34 0.68 0 0 Z " fill="#4B5638" transform="translate(556,430)"/>
<path d="M0 0 C2.14699969 3.44175522 2.09856795 5.7720292 1.625 9.75 C1.51414062 10.73484375 1.40328125 11.7196875 1.2890625 12.734375 C1.19367188 13.48203125 1.09828125 14.2296875 1 15 C0.34 15 -0.32 15 -1 15 C-1.02715383 13.25008666 -1.04646551 11.50005055 -1.0625 9.75 C-1.07410156 8.77546875 -1.08570313 7.8009375 -1.09765625 6.796875 C-1.01195577 4.34241322 -0.70706066 2.33831086 0 0 Z " fill="#CACD35" transform="translate(392,330)"/>
<path d="M0 0 C2.475 0.495 2.475 0.495 5 1 C5.33 1.99 5.66 2.98 6 4 C9.63 4.66 13.26 5.32 17 6 C17 6.33 17 6.66 17 7 C10.33849015 7.72671017 7.10869144 6.28374405 1.6875 2.41015625 C1.130625 1.94480469 0.57375 1.47945312 0 1 C0 0.67 0 0.34 0 0 Z " fill="#646D53" transform="translate(637,691)"/>
<path d="M0 0 C0.66 0.33 1.32 0.66 2 1 C0.60415208 4.37329915 -0.92365611 6.04232662 -4 8 C-4.99 8.33 -5.98 8.66 -7 9 C-5.44499019 5.18315774 -2.96404505 2.80804268 0 0 Z " fill="#485434" transform="translate(640,653)"/>
<path d="M0 0 C2.64 0 5.28 0 8 0 C8 1.98 8 3.96 8 6 C5.69 6 3.38 6 1 6 C1 5.67 1 5.34 1 5 C2.98 5 4.96 5 7 5 C7 4.01 7 3.02 7 2 C5.35 2.33 3.7 2.66 2 3 C2 2.34 2 1.68 2 1 C1.34 0.67 0.68 0.34 0 0 Z " fill="#626B52" transform="translate(480,735)"/>
<path d="M0 0 C2.475 0.99 2.475 0.99 5 2 C4.67 3.32 4.34 4.64 4 6 C1.83125748 5.49396008 0.00032373 5.00016187 -2 4 C-1.34 2.68 -0.68 1.36 0 0 Z " fill="#4B5537" transform="translate(432,738)"/>
<path d="M0 0 C3.63 0.33 7.26 0.66 11 1 C10.67 1.99 10.34 2.98 10 4 C10.66 4.33 11.32 4.66 12 5 C9.69 5 7.38 5 5 5 C5.33 4.34 5.66 3.68 6 3 C4.02 2.34 2.04 1.68 0 1 C0 0.67 0 0.34 0 0 Z " fill="#2E3A18" transform="translate(306,764)"/>
<path d="M0 0 C0 0.33 0 0.66 0 1 C-1.2375 1.0825 -2.475 1.165 -3.75 1.25 C-6.83627693 1.63169503 -7.85621727 1.88648732 -10.375 3.875 C-11.64607715 5.53717782 -12.83930098 7.25895147 -14 9 C-13.71827807 5.83062828 -13.51665615 3.64582019 -11.5 1.125 C-7.72592959 -0.57333168 -4.07515329 -0.235105 0 0 Z " fill="#DCDED7" transform="translate(396,661)"/>
<path d="M0 0 C-1.10095362 3.30286086 -1.6896019 3.78510901 -4.4375 5.6875 C-5.36369141 6.34298828 -5.36369141 6.34298828 -6.30859375 7.01171875 C-8 8 -8 8 -10 8 C-8.48502075 3.75805811 -4.70198172 0 0 0 Z " fill="#7EB215" transform="translate(352,304)"/>
<path d="M0 0 C1.134375 0.020625 2.26875 0.04125 3.4375 0.0625 C3.4375 0.3925 3.4375 0.7225 3.4375 1.0625 C2.385625 1.26875 1.33375 1.475 0.25 1.6875 C-4.20657236 2.91939805 -5.92093582 5.38031963 -8.5625 9.0625 C-8.8925 8.0725 -9.2225 7.0825 -9.5625 6.0625 C-3.5625 0.0625 -3.5625 0.0625 0 0 Z " fill="#C6C9BF" transform="translate(507.5625,739.9375)"/>
<path d="M0 0 C1.3921875 0.0928125 1.3921875 0.0928125 2.8125 0.1875 C2.8125 1.5075 2.8125 2.8275 2.8125 4.1875 C-0.1575 3.8575 -3.1275 3.5275 -6.1875 3.1875 C-3.1875 0.1875 -3.1875 0.1875 0 0 Z " fill="#273311" transform="translate(350.1875,764.8125)"/>
<path d="M0 0 C-1.32 1.32 -2.64 2.64 -4 4 C-4 3.34 -4 2.68 -4 2 C-7.63 2 -11.26 2 -15 2 C-15 1.67 -15 1.34 -15 1 C-12.87630763 0.63807496 -10.7509887 0.28568253 -8.625 -0.0625 C-6.84996094 -0.35833984 -6.84996094 -0.35833984 -5.0390625 -0.66015625 C-2 -1 -2 -1 0 0 Z " fill="#606B50" transform="translate(415,762)"/>
<path d="M0 0 C1.45606519 4.52092968 0.27032841 7.51648796 -1 12 C-1.99 12 -2.98 12 -4 12 C-3.52309796 10.37433394 -3.04340334 8.74948689 -2.5625 7.125 C-2.29566406 6.22007812 -2.02882813 5.31515625 -1.75390625 4.3828125 C-1 2 -1 2 0 0 Z " fill="#6A7459" transform="translate(315,652)"/>
<path d="M0 0 C1.75570312 0.01353516 1.75570312 0.01353516 3.546875 0.02734375 C4.43890625 0.03894531 5.3309375 0.05054688 6.25 0.0625 C6.25 0.3925 6.25 0.7225 6.25 1.0625 C2.62 1.0625 -1.01 1.0625 -4.75 1.0625 C-4.75 1.7225 -4.75 2.3825 -4.75 3.0625 C-7.06 3.0625 -9.37 3.0625 -11.75 3.0625 C-10.75 1.0625 -10.75 1.0625 -9.109375 0.44140625 C-6.04728012 -0.05035402 -3.10003047 -0.0310003 0 0 Z " fill="#556045" transform="translate(653.75,649.9375)"/>
<path d="M0 0 C2.97 0 5.94 0 9 0 C9.33 0.99 9.66 1.98 10 3 C10.99 3.33 11.98 3.66 13 4 C9.25 5.125 9.25 5.125 7 4 C7 3.34 7 2.68 7 2 C4.69 1.67 2.38 1.34 0 1 C0 0.67 0 0.34 0 0 Z " fill="#445032" transform="translate(309,764)"/>
<path d="M0 0 C1.9375 1.0625 1.9375 1.0625 4 3 C4.75 6.6875 4.75 6.6875 5 10 C4.34 10 3.68 10 3 10 C0 3.375 0 3.375 0 0 Z " fill="#434E2C" transform="translate(352,674)"/>
<path d="M0 0 C2.34914492 2.34914492 2.73140357 3.95679446 3.625 7.125 C3.88539063 8.03507813 4.14578125 8.94515625 4.4140625 9.8828125 C4.70410156 10.93082031 4.70410156 10.93082031 5 12 C3.5 10.625 3.5 10.625 2 9 C2 8.34 2 7.68 2 7 C1.34 7 0.68 7 0 7 C0 4.69 0 2.38 0 0 Z " fill="#70785F" transform="translate(341,641)"/>
<path d="M0 0 C-0.66 1.32 -1.32 2.64 -2 4 C-2 3.34 -2 2.68 -2 2 C-5.63 2 -9.26 2 -13 2 C-13 1.67 -13 1.34 -13 1 C-8.60563789 0.14256349 -4.47427924 -0.08948558 0 0 Z " fill="#333E1B" transform="translate(166,633)"/>
<path d="M0 0 C0 0.33 0 0.66 0 1 C-1.175625 1.1546875 -1.175625 1.1546875 -2.375 1.3125 C-5.33045181 1.77595022 -5.33045181 1.77595022 -7 5 C-7.66 5 -8.32 5 -9 5 C-9 6.98 -9 8.96 -9 11 C-9.33 11 -9.66 11 -10 11 C-10.48275862 4.72413793 -10.48275862 4.72413793 -8.375 1.5625 C-5.397402 -0.39644605 -3.49644963 -0.31785906 0 0 Z " fill="#545F42" transform="translate(181,627)"/>
<path d="M0 0 C0 1.32 0 2.64 0 4 C-1.98 4.66 -3.96 5.32 -6 6 C-6 3 -6 3 -4.6875 1.3125 C-3 0 -3 0 0 0 Z " fill="#2B3617" transform="translate(311,408)"/>
<path d="M0 0 C1.98362069 2.91708924 1.9876191 4.12380904 1.625 7.75 C1.41875 8.8225 1.2125 9.895 1 11 C0.34 10.67 -0.32 10.34 -1 10 C-1.125 3.375 -1.125 3.375 0 0 Z " fill="#596249" transform="translate(223,342)"/>
<path d="M0 0 C3.09998746 0.33214151 4.0545012 1.0545012 6.3125 3.3125 C8 6 8 6 7.75 8.3125 C7.5025 8.869375 7.255 9.42625 7 10 C6.773125 9.278125 6.54625 8.55625 6.3125 7.8125 C4.75168987 4.46790687 2.6968713 2.48396041 0 0 Z " fill="#586244" transform="translate(516,738)"/>
<path d="M0 0 C4.29 0 8.58 0 13 0 C12.67 0.66 12.34 1.32 12 2 C11.31292969 1.97679687 10.62585938 1.95359375 9.91796875 1.9296875 C9.01691406 1.91164063 8.11585938 1.89359375 7.1875 1.875 C6.29417969 1.85179687 5.40085937 1.82859375 4.48046875 1.8046875 C1.74597286 1.81714173 1.74597286 1.81714173 -1 4 C-0.67 2.68 -0.34 1.36 0 0 Z " fill="#545E3E" transform="translate(463,660)"/>
<path d="M0 0 C2.64 0.33 5.28 0.66 8 1 C8 1.66 8 2.32 8 3 C9.65 3.33 11.3 3.66 13 4 C10.44855176 4.93045933 9.25993522 5.08564091 6.640625 4.22265625 C5.85171875 3.83980469 5.0628125 3.45695312 4.25 3.0625 C3.45078125 2.68222656 2.6515625 2.30195313 1.828125 1.91015625 C1.22484375 1.60980469 0.6215625 1.30945313 0 1 C0 0.67 0 0.34 0 0 Z " fill="#6F7761" transform="translate(498,494)"/>
<path d="M0 0 C1.79068573 2.6860286 2.66055791 4.6626589 3.625 7.6875 C3.88539062 8.49574219 4.14578125 9.30398438 4.4140625 10.13671875 C4.60742188 10.75160156 4.80078125 11.36648438 5 12 C3 11 3 11 2 8 C1.34 7.67 0.68 7.34 0 7 C-1.09036928 4.0262656 -1.03864166 3.11592499 0 0 Z " fill="#5A6645" transform="translate(119,640)"/>
<path d="M0 0 C2.66735273 2.48952921 4.55746343 4.63408134 6 8 C4.1875 7.8125 4.1875 7.8125 2 7 C0.1875 4.5625 0.1875 4.5625 -1 2 C-0.67 1.34 -0.34 0.68 0 0 Z " fill="#82B125" transform="translate(207,453)"/>
<path d="M0 0 C0.99 0 1.98 0 3 0 C3 0.66 3 1.32 3 2 C3.99 2.33 4.98 2.66 6 3 C5.67 3.66 5.34 4.32 5 5 C4.01 5.33 3.02 5.66 2 6 C0 3 0 3 0 0 Z " fill="#2D381A" transform="translate(242,400)"/>
<path d="M0 0 C2.0625 0.4375 2.0625 0.4375 4 1 C3.01 1.495 3.01 1.495 2 2 C3.32 2.66 4.64 3.32 6 4 C2.37 3.67 -1.26 3.34 -5 3 C-3.68 2.34 -2.36 1.68 -1 1 C-0.67 0.67 -0.34 0.34 0 0 Z " fill="#4D5839" transform="translate(310,766)"/>
<path d="M0 0 C-0.66 1.32 -1.32 2.64 -2 4 C-3.65 4 -5.3 4 -7 4 C-6.67 3.01 -6.34 2.02 -6 1 C-4 0 -4 0 0 0 Z " fill="#333E1B" transform="translate(522,763)"/>
<path d="M0 0 C0.66 0.99 1.32 1.98 2 3 C0.68 3.33 -0.64 3.66 -2 4 C-2 3.01 -2 2.02 -2 1 C-4.64 1 -7.28 1 -10 1 C-10 0.67 -10 0.34 -10 0 C-2.25 -1.125 -2.25 -1.125 0 0 Z " fill="#545D43" transform="translate(448,764)"/>
<path d="M0 0 C0.33 0 0.66 0 1 0 C1.38133299 1.9914056 1.71325582 3.99279077 2 6 C1.67 6.33 1.34 6.66 1 7 C0.76924918 8.34747084 0.58846937 9.70377565 0.4375 11.0625 C0.293125 12.361875 0.14875 13.66125 0 15 C-0.33 15 -0.66 15 -1 15 C-1.02715383 13.25008666 -1.04646551 11.50005055 -1.0625 9.75 C-1.07410156 8.77546875 -1.08570313 7.8009375 -1.09765625 6.796875 C-1.01195577 4.34241322 -0.70706066 2.33831086 0 0 Z " fill="#6E795D" transform="translate(381,736)"/>
<path d="M0 0 C3.375 -0.125 3.375 -0.125 7 0 C7.66 0.66 8.32 1.32 9 2 C8 3 8 3 5.0625 3.25 C4.051875 3.1675 3.04125 3.085 2 3 C1.34 2.01 0.68 1.02 0 0 Z " fill="#5C644D" transform="translate(425,640)"/>
<path d="M0 0 C3.375 -0.125 3.375 -0.125 7 0 C7.66 0.66 8.32 1.32 9 2 C8 3 8 3 5.0625 3.25 C4.051875 3.1675 3.04125 3.085 2 3 C1.34 2.01 0.68 1.02 0 0 Z " fill="#5C634B" transform="translate(173,640)"/>
<path d="M0 0 C0.99 0.33 1.98 0.66 3 1 C3 1.66 3 2.32 3 3 C5.97 3.33 8.94 3.66 12 4 C12 4.33 12 4.66 12 5 C4.66666667 5.36666667 4.66666667 5.36666667 1.5 3.625 C0 2 0 2 0 0 Z " fill="#656E57" transform="translate(324,370)"/>
<path d="M0 0 C0.66 0.33 1.32 0.66 2 1 C-0.97 2.65 -3.94 4.3 -7 6 C-7.66 5.34 -8.32 4.68 -9 4 C-7.54618103 3.30300448 -6.08677047 2.61766134 -4.625 1.9375 C-3.40683594 1.36322266 -3.40683594 1.36322266 -2.1640625 0.77734375 C-1.44992187 0.52082031 -0.73578125 0.26429688 0 0 Z " fill="#98C347" transform="translate(376,280)"/>
<path d="M0 0 C0 1.65 0 3.3 0 5 C-0.99 5.495 -0.99 5.495 -2 6 C-2.33 5.34 -2.66 4.68 -3 4 C-3.66 4 -4.32 4 -5 4 C-4.67 3.01 -4.34 2.02 -4 1 C-2 0 -2 0 0 0 Z " fill="#32401E" transform="translate(303,741)"/>
<path d="M0 0 C1.22589844 0.01353516 1.22589844 0.01353516 2.4765625 0.02734375 C3.41628906 0.04474609 3.41628906 0.04474609 4.375 0.0625 C4.375 0.3925 4.375 0.7225 4.375 1.0625 C3.76011719 1.19527344 3.14523437 1.32804687 2.51171875 1.46484375 C1.29935547 1.72974609 1.29935547 1.72974609 0.0625 2 C-1.13826172 2.26103516 -1.13826172 2.26103516 -2.36328125 2.52734375 C-4.770401 3.06136159 -4.770401 3.06136159 -7.625 4.0625 C-7.295 3.0725 -6.965 2.0825 -6.625 1.0625 C-4.21954362 -0.14022819 -2.67503047 -0.03821472 0 0 Z " fill="#FDDF62" transform="translate(266.625,367.9375)"/>
<path d="M0 0 C0.99 0 1.98 0 3 0 C3 0.66 3 1.32 3 2 C3.99 2.33 4.98 2.66 6 3 C6 3.66 6 4.32 6 5 C5.01 5 4.02 5 3 5 C2.34 4.01 1.68 3.02 1 2 C0.01 2 -0.98 2 -2 2 C-1.34 1.34 -0.68 0.68 0 0 Z " fill="#576047" transform="translate(417,758)"/>
<path d="M0 0 C0.66 0.33 1.32 0.66 2 1 C0.02 2.98 -1.96 4.96 -4 7 C-4.66 6.67 -5.32 6.34 -6 6 C-4 4 -2 2 0 0 Z " fill="#D5D8D0" transform="translate(396,729)"/>
<path d="M0 0 C0.99 0.33 1.98 0.66 3 1 C4.1875 3.5625 4.1875 3.5625 5 6 C4.01 6 3.02 6 2 6 C0 3 0 3 0 0 Z " fill="#4A5535" transform="translate(641,679)"/>
<path d="M0 0 C0.66 0.33 1.32 0.66 2 1 C0.6875 3.5 0.6875 3.5 -1 6 C-1.99 6 -2.98 6 -4 6 C-2.84826645 3.53199953 -1.95216435 1.95216435 0 0 Z " fill="#525C41" transform="translate(225,653)"/>
<path d="M0 0 C0.66 0 1.32 0 2 0 C1.3125 2.375 1.3125 2.375 0 5 C-2.625 6.3125 -2.625 6.3125 -5 7 C-4.21654285 5.82780457 -3.42297164 4.66236332 -2.625 3.5 C-2.18414063 2.8503125 -1.74328125 2.200625 -1.2890625 1.53125 C-0.65097656 0.77328125 -0.65097656 0.77328125 0 0 Z " fill="#4C5419" transform="translate(529,483)"/>
</svg>
