<?xml version="1.0" standalone="no"?>
<!DOCTYPE svg PUBLIC "-//W3C//DTD SVG 20010904//EN"
 "http://www.w3.org/TR/2001/REC-SVG-20010904/DTD/svg10.dtd">
<svg version="1.0" xmlns="http://www.w3.org/2000/svg"
 width="779.000000pt" height="841.000000pt" viewBox="0 0 779.000000 841.000000"
 preserveAspectRatio="xMidYMid meet">
<metadata>
Created by potrace 1.16, written by Peter Selinger 2001-2019
</metadata>
<g transform="translate(0.000000,841.000000) scale(0.100000,-0.100000)"
fill="#000000" stroke="none">
<path d="M2626 7619 c-166 -39 -321 -189 -398 -386 -45 -114 -57 -174 -64
-308 -13 -245 40 -461 169 -692 52 -93 52 -93 109 -93 70 0 140 -28 192 -78
41 -40 76 -108 76 -150 0 -15 4 -32 8 -37 11 -16 142 -72 199 -85 67 -15 225
-16 283 -1 214 55 365 214 432 456 19 69 22 103 21 250 -1 157 -3 179 -32 290
-59 223 -205 475 -355 611 -108 99 -212 162 -336 204 -72 25 -236 35 -304 19z"/>
<path d="M4801 7610 c-151 -41 -276 -116 -402 -243 -166 -167 -295 -408 -345
-647 -24 -117 -25 -336 0 -445 44 -199 158 -356 312 -432 75 -36 84 -38 169
-37 145 2 405 78 590 172 156 79 303 322 377 620 30 121 32 391 4 502 -65 255
-200 427 -391 500 -86 32 -216 37 -314 10z"/>
<path d="M1020 6629 c-88 -15 -210 -80 -264 -140 -101 -113 -145 -228 -153
-400 -9 -199 22 -339 117 -535 137 -279 362 -489 646 -605 54 -21 100 -39 104
-39 4 0 10 30 14 68 30 288 147 559 339 783 61 70 191 190 232 215 17 10 15
16 -28 85 -136 218 -341 404 -543 494 -146 65 -339 96 -464 74z"/>
<path d="M6459 6629 c-139 -18 -319 -99 -474 -214 -68 -50 -255 -238 -255
-256 0 -5 25 -9 55 -9 183 0 397 -188 619 -544 83 -132 177 -324 202 -411 10
-36 24 -65 30 -65 20 0 207 202 257 278 177 265 244 585 176 840 -27 102 -59
161 -130 237 -118 126 -269 171 -480 144z"/>
<path d="M5615 5970 c-76 -20 -165 -51 -290 -100 -44 -17 -93 -36 -110 -42
-45 -15 -78 -55 -65 -78 24 -45 39 -43 235 31 280 105 397 129 463 95 38 -20
158 -146 224 -236 120 -164 247 -393 302 -549 33 -90 59 -241 51 -284 -16 -82
-26 -99 -70 -118 -37 -16 -51 -18 -90 -9 -63 14 -162 61 -217 104 -25 18 -55
39 -66 45 -13 7 -30 39 -48 93 -41 125 -90 242 -146 353 -64 126 -96 172 -154
224 -61 53 -110 57 -156 11 -29 -29 -30 -34 -26 -98 4 -83 46 -176 138 -307
75 -108 98 -136 200 -240 78 -80 78 -80 113 -195 80 -265 129 -539 130 -725 0
-213 -45 -347 -157 -459 -113 -115 -218 -139 -357 -83 -93 38 -129 33 -129
-18 0 -31 29 -54 106 -82 126 -45 244 -39 356 18 57 29 157 131 195 199 68
122 111 330 98 475 -17 190 -47 365 -92 535 -35 133 -36 140 -27 140 5 0 41
-16 80 -36 167 -84 322 -64 390 53 25 41 29 60 32 143 3 77 -1 114 -22 192
-89 346 -411 839 -616 943 -62 31 -170 33 -275 5z m11 -610 c41 -64 132 -247
149 -299 13 -43 -14 -19 -80 70 -81 108 -145 228 -145 270 0 49 27 34 76 -41z"/>
<path d="M2353 5950 c-265 -95 -549 -414 -646 -725 -47 -152 -52 -190 -52
-415 1 -185 4 -229 23 -319 89 -409 314 -787 638 -1073 120 -106 249 -198 276
-198 36 0 58 19 58 50 0 24 -12 39 -72 86 -360 285 -605 616 -723 979 -60 184
-78 290 -78 475 -1 212 29 351 111 515 103 208 285 409 447 496 56 30 65 32
80 19 15 -13 17 -26 12 -98 -3 -45 -14 -134 -23 -197 -20 -142 -19 -145 77
-145 135 0 503 -65 802 -141 78 -20 78 -20 220 74 148 98 312 187 346 187 11
0 23 -5 27 -12 13 -20 4 -108 -26 -262 -44 -227 -58 -318 -71 -460 -14 -150
-6 -436 14 -541 8 -38 26 -128 41 -200 14 -71 33 -164 42 -205 40 -199 158
-409 286 -511 162 -129 427 -159 598 -68 105 56 137 109 88 143 -31 22 -43 20
-82 -14 -51 -46 -116 -70 -203 -77 -144 -11 -268 34 -367 133 -55 55 -132 161
-123 170 3 3 30 -13 62 -35 89 -63 155 -64 155 -3 0 22 -12 36 -64 74 -100 72
-204 232 -261 401 -31 95 -41 240 -26 419 32 386 147 807 257 938 31 36 84 63
108 54 21 -8 56 14 56 36 0 27 -38 50 -85 50 -117 -1 -210 -104 -282 -312 -19
-57 -38 -107 -42 -111 -9 -9 3 84 23 193 34 179 29 250 -22 290 -37 30 -122
24 -217 -15 -73 -30 -244 -128 -330 -189 -27 -20 -57 -36 -65 -36 -8 0 -58 11
-111 25 -163 41 -428 93 -569 110 -74 10 -137 19 -139 21 -2 2 1 55 8 117 14
146 14 268 -2 288 -33 43 -91 49 -174 19z"/>
<path d="M2290 5052 c-24 -11 -43 -32 -59 -65 -21 -43 -22 -53 -12 -87 6 -21
27 -52 46 -69 66 -58 166 -36 205 44 24 49 25 74 6 101 -12 15 -17 17 -27 7
-16 -16 -45 -17 -54 -2 -4 6 3 21 16 35 24 26 24 26 -8 43 -31 16 -73 14 -113
-7z"/>
<path d="M5249 5031 c-33 -33 -39 -45 -39 -82 0 -55 27 -101 73 -122 58 -28
94 -21 149 31 33 31 44 78 29 125 -14 42 -37 54 -51 27 -6 -11 -17 -20 -26
-20 -22 0 -28 28 -10 49 21 24 12 31 -42 31 -38 0 -50 -5 -83 -39z"/>
<path d="M4443 4940 c-61 -37 -85 -102 -59 -163 42 -101 191 -100 233 0 16 39
12 95 -8 119 -10 13 -15 12 -35 -7 -20 -18 -26 -20 -39 -9 -14 12 -14 15 0 37
9 13 13 28 10 33 -10 17 -68 11 -102 -10z"/>
<path d="M3285 4919 c-49 -14 -86 -60 -93 -115 -7 -63 17 -107 74 -134 58 -29
107 -19 157 30 33 34 37 43 37 88 0 57 -11 70 -41 48 -12 -8 -28 -12 -35 -9
-21 8 -17 41 6 48 30 9 24 24 -15 41 -38 16 -47 16 -90 3z"/>
<path d="M2594 4695 c-18 -27 -18 -28 12 -82 16 -30 46 -77 67 -104 20 -27 37
-58 37 -69 0 -28 -56 -87 -95 -100 -45 -15 -99 8 -123 51 -32 58 -47 72 -69
65 -12 -4 -24 -14 -27 -22 -13 -33 55 -124 115 -154 54 -28 103 -25 164 9 52
29 52 29 69 -1 24 -39 98 -86 150 -93 49 -7 108 12 179 57 40 25 48 35 45 57
-4 34 -41 40 -71 13 -26 -24 -72 -47 -110 -56 -48 -11 -110 24 -136 76 -33 69
-28 98 22 130 23 15 68 48 100 73 46 37 57 51 57 75 0 20 -8 35 -24 45 -33 22
-144 45 -252 52 -92 6 -92 6 -110 -22z"/>
<path d="M4965 4599 c-121 -18 -221 -63 -269 -120 -33 -39 -36 -120 -7 -177
38 -75 141 -153 239 -182 42 -13 42 -13 42 -67 0 -122 -70 -199 -203 -224 -78
-14 -150 3 -220 51 -81 55 -127 51 -127 -10 0 -29 23 -54 86 -93 68 -42 132
-59 220 -59 80 1 80 1 92 -58 22 -102 106 -189 223 -229 206 -69 361 44 346
253 -2 39 -8 78 -11 87 -5 12 6 19 52 32 115 32 202 124 210 222 4 44 1 60
-13 75 -39 43 -95 12 -95 -52 0 -78 -78 -139 -186 -146 -135 -9 -230 63 -258
195 -7 28 -4 34 21 46 45 24 131 122 158 179 33 71 34 151 2 199 -44 67 -167
99 -302 78z m209 -105 c19 -18 21 -55 4 -72 -21 -21 -66 -14 -84 13 -15 23
-15 27 0 50 19 29 56 33 80 9z"/>
<path d="M1546 4228 c-8 -18 -30 -69 -49 -113 -54 -127 -97 -287 -118 -440
-16 -126 -6 -395 20 -505 72 -308 209 -514 407 -613 180 -91 355 -123 613
-115 181 7 319 34 521 103 69 24 179 62 245 85 282 97 503 135 745 127 235 -8
437 -56 797 -190 284 -106 430 -133 683 -124 131 4 186 11 265 31 121 31 260
97 336 159 185 151 318 499 319 832 0 125 -18 325 -31 339 -10 11 -13 4 -32
-101 -41 -224 -220 -462 -448 -598 -132 -78 -320 -136 -504 -156 -242 -26
-513 5 -850 97 -432 118 -500 128 -820 129 -352 0 -556 -35 -860 -151 -50 -19
-102 -34 -115 -34 -44 0 -259 134 -403 252 -164 135 -358 355 -483 548 -87
135 -204 388 -204 441 0 33 -20 31 -34 -3z"/>
<path d="M1731 2124 c-60 -50 -25 -148 52 -148 83 0 119 95 56 148 -17 14 -41
26 -54 26 -13 0 -37 -12 -54 -26z"/>
<path d="M4274 2140 c-29 -12 -54 -49 -54 -81 0 -34 32 -75 65 -83 53 -13 121
53 107 106 -6 24 -59 68 -80 67 -9 0 -27 -4 -38 -9z"/>
<path d="M1953 2108 c-9 -15 -16 -621 -8 -655 5 -21 11 -23 69 -23 49 0 65 4
70 16 11 28 7 634 -4 655 -9 15 -22 19 -65 19 -32 0 -57 -5 -62 -12z"/>
<path d="M5882 2112 c-9 -7 -12 -82 -10 -343 3 -334 3 -334 68 -334 65 0 65 0
68 334 2 261 -1 336 -10 343 -7 4 -33 8 -58 8 -25 0 -51 -4 -58 -8z"/>
<path d="M6105 2107 c-3 -6 -4 -161 -3 -342 3 -330 3 -330 68 -330 65 0 65 0
68 329 2 234 -1 333 -9 342 -15 18 -118 19 -124 1z"/>
<path d="M1572 2093 c-63 -5 -48 21 -147 -258 -37 -104 -69 -192 -71 -194 -8
-9 -18 13 -93 216 -43 115 -81 215 -85 221 -8 14 -142 17 -150 3 -5 -7 186
-521 229 -618 15 -33 15 -33 94 -33 91 0 63 -46 212 350 44 118 88 234 97 258
15 38 15 44 2 52 -8 5 -19 9 -25 8 -5 -1 -34 -3 -63 -5z"/>
<path d="M3223 2078 c-5 -7 -28 -62 -51 -123 -22 -60 -75 -200 -116 -309 -42
-110 -72 -204 -68 -208 5 -5 40 -8 78 -6 68 3 68 3 89 58 21 55 21 55 152 58
131 3 131 3 143 -35 25 -77 33 -83 110 -83 56 0 70 3 70 15 0 9 -43 127 -96
263 -53 136 -105 272 -116 302 -30 79 -31 80 -113 80 -46 0 -76 -5 -82 -12z
m133 -308 c32 -85 29 -90 -59 -90 -39 0 -59 4 -63 13 -4 12 9 55 56 172 12 30
12 30 26 3 8 -15 26 -59 40 -98z"/>
<path d="M2302 1907 c-53 -20 -99 -63 -127 -122 -24 -48 -27 -64 -23 -128 4
-93 40 -157 112 -201 65 -40 161 -48 220 -17 35 18 40 19 50 5 9 -11 27 -14
71 -12 60 3 60 3 60 238 0 235 0 235 -59 238 -44 2 -61 -1 -70 -13 -10 -14
-15 -13 -51 5 -44 23 -130 26 -183 7z m176 -133 c32 -22 52 -67 52 -115 0 -34
-6 -47 -35 -76 -34 -34 -38 -35 -90 -31 -64 5 -90 25 -107 80 -14 49 2 109 39
137 32 26 108 28 141 5z"/>
<path d="M3867 1899 c-36 -19 -40 -19 -51 -4 -9 12 -25 15 -71 13 -60 -3 -60
-3 -60 -238 0 -235 0 -235 65 -235 65 0 65 0 70 152 5 143 6 153 29 177 18 19
35 26 62 26 85 0 93 -16 99 -205 5 -150 5 -150 64 -153 41 -2 62 1 67 10 15
23 10 300 -6 354 -16 53 -53 96 -98 113 -45 17 -128 12 -170 -10z"/>
<path d="M4647 1899 c-33 -17 -38 -18 -43 -4 -9 22 -129 22 -138 -1 -3 -9 -6
-109 -6 -224 0 -115 3 -215 6 -224 9 -23 129 -23 138 0 3 9 6 78 6 155 0 135
1 141 25 164 30 31 83 33 116 6 23 -18 24 -26 29 -178 5 -158 5 -158 64 -161
41 -2 62 1 67 10 5 7 9 75 9 150 0 132 1 137 26 167 20 24 34 31 63 31 71 0
76 -10 79 -172 3 -200 -1 -190 75 -186 62 3 62 3 65 179 2 167 1 177 -21 220
-35 65 -84 91 -169 87 -58 -3 -72 -8 -108 -37 -42 -33 -42 -33 -68 -8 -15 13
-37 30 -49 36 -35 18 -123 13 -166 -10z"/>
<path d="M5412 1894 c-87 -43 -131 -119 -132 -227 -1 -178 172 -298 329 -227
39 18 45 19 55 5 9 -12 26 -15 71 -13 60 3 60 3 60 238 0 235 0 235 -60 238
-44 2 -62 -1 -71 -12 -10 -14 -15 -13 -50 4 -56 29 -137 27 -202 -6z m215
-139 c34 -34 35 -38 31 -92 -4 -48 -10 -61 -37 -85 -25 -23 -41 -28 -80 -28
-87 0 -136 68 -112 157 16 57 51 83 113 83 44 0 54 -4 85 -35z"/>
<path d="M6440 1905 c-186 -84 -196 -362 -17 -458 34 -17 59 -22 127 -22 74 0
91 3 131 27 67 39 75 52 55 83 -29 45 -58 51 -117 25 -64 -27 -110 -22 -151
16 -15 15 -28 31 -28 36 0 4 75 9 168 10 167 3 167 3 167 75 0 63 -3 76 -30
114 -17 24 -50 57 -74 74 -37 26 -52 30 -119 33 -53 1 -88 -3 -112 -13z m173
-137 c32 -33 32 -33 -20 -36 -29 -2 -77 -2 -105 0 -53 3 -53 3 -21 36 25 26
39 32 73 32 34 0 48 -6 73 -32z"/>
<path d="M1722 1673 c3 -238 3 -238 68 -238 65 0 65 0 65 235 0 235 0 235 -68
238 -67 3 -67 3 -65 -235z"/>
<path d="M4240 1670 c0 -240 0 -240 65 -240 65 0 65 0 65 240 0 240 0 240 -65
240 -65 0 -65 0 -65 -240z"/>
<path d="M3980 1201 c-71 -23 -131 -74 -166 -141 -27 -51 -25 -162 3 -216 45
-85 140 -144 231 -144 48 0 125 28 162 59 35 29 35 29 16 50 -24 26 -46 27
-88 1 -47 -29 -134 -27 -179 3 -39 26 -79 97 -79 142 0 45 40 116 79 142 46
31 128 31 182 1 33 -18 43 -20 64 -10 69 31 -25 111 -137 118 -35 2 -74 0 -88
-5z"/>
<path d="M2567 1186 c-3 -7 -3 -118 0 -245 6 -232 6 -232 42 -229 36 3 36 3
39 83 2 48 8 82 15 87 7 4 44 8 83 8 83 0 128 23 156 80 41 81 12 176 -65 210
-54 25 -261 29 -270 6z m227 -76 c15 -5 28 -20 33 -37 19 -74 -11 -103 -108
-103 -69 0 -69 0 -69 68 0 38 3 72 7 75 10 10 108 8 137 -3z"/>
<path d="M3387 1174 c-4 -4 -7 -27 -7 -51 0 -33 -4 -45 -17 -49 -37 -11 -48
-22 -48 -45 0 -17 6 -25 23 -27 32 -5 42 -38 42 -141 0 -74 3 -93 21 -114 27
-35 90 -54 124 -39 42 19 27 72 -20 72 -38 0 -45 19 -45 117 0 93 0 93 26 93
35 0 64 17 64 38 0 27 -20 42 -56 42 -33 0 -33 1 -36 53 -3 50 -4 52 -33 55
-17 2 -34 0 -38 -4z"/>
<path d="M3041 1053 c-18 -9 -46 -34 -61 -55 -92 -126 -2 -298 156 -298 37 0
134 47 134 65 0 17 -27 45 -43 45 -7 -1 -23 -7 -37 -15 -44 -25 -98 -19 -131
15 -17 16 -28 34 -24 40 4 6 58 10 132 10 125 0 125 0 121 55 -5 59 -24 94
-71 129 -37 27 -130 33 -176 9z m122 -64 c14 -6 30 -22 36 -35 11 -24 11 -24
-74 -24 -89 0 -105 10 -67 42 32 29 67 34 105 17z"/>
<path d="M4350 1048 c-51 -26 -62 -56 -30 -76 18 -11 28 -10 66 8 50 25 98 20
115 -11 15 -28 3 -39 -44 -39 -61 0 -114 -17 -149 -49 -25 -23 -31 -35 -31
-71 0 -36 6 -48 31 -71 42 -38 95 -46 152 -26 29 10 48 13 54 7 6 -6 25 -10
43 -10 33 0 33 0 33 139 0 125 -2 141 -21 165 -47 60 -139 74 -219 34z m152
-208 c-3 -35 -38 -60 -82 -60 -46 0 -66 20 -50 49 10 20 23 25 80 34 44 8 55
3 52 -23z"/>
<path d="M4671 1056 c-8 -9 -11 -65 -9 -177 3 -164 3 -164 43 -164 40 0 40 0
42 95 2 52 5 105 8 117 8 35 45 63 82 63 27 0 35 5 43 26 19 50 -32 71 -94 39
-26 -14 -31 -14 -46 0 -21 19 -54 19 -69 1z"/>
<path d="M5005 1055 c-66 -36 -105 -98 -105 -170 0 -145 151 -228 287 -158 70
37 40 104 -32 70 -41 -19 -84 -22 -118 -6 -27 12 -50 45 -42 59 4 6 62 10 131
10 124 0 124 0 124 49 0 53 -25 99 -72 134 -37 28 -132 34 -173 12z m123 -71
c12 -8 27 -24 32 -35 10 -18 7 -19 -81 -19 -91 0 -91 0 -77 23 30 45 86 59
126 31z"/>
</g>
</svg>
